<?xml version="1.0" encoding="UTF-8" standalone="no"?>
<svg width="90px" height="67px" viewBox="0 0 90 67" version="1.1" xmlns="http://www.w3.org/2000/svg" xmlns:xlink="http://www.w3.org/1999/xlink">
    <!-- Generator: Sketch 39.1 (31720) - http://www.bohemiancoding.com/sketch -->
    <title>Artboard</title>
    <desc>Created with Sketch.</desc>
    <defs></defs>
    <g id="Page-1" stroke="none" stroke-width="1" fill="none" fill-rule="evenodd">
        <g id="Artboard">
            <path d="M52.518,67 L36.342,67 L36.342,33.4 L39.942,33.4 L39.942,63.688 L52.518,63.688 L52.518,67 Z M56.602,33.4 C57.1140026,33.3039995 57.6819969,33.2320002 58.306,33.184 C58.9300031,33.1359998 59.5619968,33.1040001 60.202,33.088 C60.8420032,33.0719999 61.4739969,33.0560001 62.098,33.04 C62.7220031,33.0239999 63.3059973,33.016 63.85,33.016 C66.1860117,33.016 68.1699918,33.415996 69.802,34.216 C71.4340082,35.016004 72.7619949,36.1599926 73.786,37.648 C74.8100051,39.1360074 75.5459978,40.9199896 75.994,43 C76.4420022,45.0800104 76.666,47.3999872 76.666,49.96 C76.666,52.2640115 76.4500022,54.4719894 76.018,56.584 C75.5859978,58.6960106 74.8580051,60.551992 73.834,62.152 C72.8099949,63.752008 71.4580084,65.0319952 69.778,65.992 C68.0979916,66.9520048 65.9940126,67.432 63.466,67.432 C63.0499979,67.432 62.5220032,67.4240001 61.882,67.408 C61.2419968,67.3919999 60.5780034,67.3600002 59.89,67.312 C59.2019966,67.2639998 58.562003,67.2240002 57.97,67.192 C57.377997,67.1599998 56.9220016,67.1120003 56.602,67.048 L56.602,33.4 Z M64.042,36.328 L63.01,36.328 C62.6419982,36.328 62.2820018,36.3439998 61.93,36.376 C61.5779982,36.4080002 61.2500015,36.4399998 60.946,36.472 C60.6419985,36.5040002 60.394001,36.5359998 60.202,36.568 L60.202,63.928 C60.3300006,63.9600002 60.5619983,63.9839999 60.898,64 C61.2340017,64.0160001 61.5859982,64.0319999 61.954,64.048 C62.3220018,64.0640001 62.6739983,64.0799999 63.01,64.096 C63.3460017,64.1120001 63.5939992,64.12 63.754,64.12 C65.5140088,64.12 66.9859941,63.7360038 68.17,62.968 C69.3540059,62.1999962 70.2899966,61.1680065 70.978,59.872 C71.6660034,58.5759935 72.1539986,57.0720086 72.442,55.36 C72.7300014,53.6479914 72.874,51.8320096 72.874,49.912 C72.874,48.2159915 72.7460013,46.5520082 72.49,44.92 C72.2339987,43.2879918 71.7780033,41.8400063 71.122,40.576 C70.4659967,39.3119937 69.5700057,38.2880039 68.434,37.504 C67.2979943,36.7199961 65.834009,36.328 64.042,36.328 L64.042,36.328 Z" id="LD" fill="#D0011B"></path>
            <path d="M36.6724705,20.656 L27.7444705,0.4 L31.9684705,0.4 L38.0164705,15.04 L38.6404705,17.968 L38.7364705,17.968 L39.3604705,14.944 L45.2164705,0.4 L49.1044705,0.4 L40.2724705,20.608 L40.2724705,34 L36.6724705,34 L36.6724705,20.656 Z M56.8268235,20.656 L47.8988235,0.4 L52.1228235,0.4 L58.1708235,15.04 L58.7948235,17.968 L58.8908235,17.968 L59.5148235,14.944 L65.3708235,0.4 L69.2588235,0.4 L60.4268235,20.608 L60.4268235,34 L56.8268235,34 L56.8268235,20.656 Z M76.9811765,20.656 L68.0531765,0.4 L72.2771765,0.4 L78.3251765,15.04 L78.9491765,17.968 L79.0451765,17.968 L79.6691765,14.944 L85.5251765,0.4 L89.4131765,0.4 L80.5811765,20.608 L80.5811765,34 L76.9811765,34 L76.9811765,20.656 Z" id="YYY" fill="#FFFFFF"></path>
            <polygon id="W" fill="#D0011B" points="8.18682351 22.624 8.76282351 28.24 8.85882351 28.24 9.43482351 22.528 14.8108235 0.4 16.8748235 0.4 22.2508235 22.576 22.8268235 28.24 22.8748235 28.24 23.5468235 22.528 27.8188235 0.4 31.4188235 0.4 23.9308235 34.528 21.7228235 34.528 16.3948235 12.4 15.7228235 7.264 15.5788235 7.264 14.9068235 12.448 9.57882351 34.528 7.32282351 34.528 -0.309176493 0.4 3.57882351 0.4"></polygon>
        </g>
    </g>
</svg>