<?xml version="1.0" encoding="UTF-8" standalone="no"?>
<svg width="149px" height="35px" viewBox="0 0 149 35" version="1.1" xmlns="http://www.w3.org/2000/svg" xmlns:xlink="http://www.w3.org/1999/xlink">
    <!-- Generator: Sketch 39.1 (31720) - http://www.bohemiancoding.com/sketch -->
    <title>Artboard</title>
    <desc>Created with Sketch.</desc>
    <defs></defs>
    <g id="Page-1" stroke="none" stroke-width="1" fill="none" fill-rule="evenodd">
        <g id="Artboard">
            <path d="M124.176,33.984 L108,33.984 L108,0.384 L111.6,0.384 L111.6,30.672 L124.176,30.672 L124.176,33.984 Z M128.26,0.384 C128.772003,0.28799952 129.339997,0.21600024 129.964,0.168 C130.588003,0.11999976 131.219997,0.08800008 131.86,0.072 C132.500003,0.05599992 133.131997,0.04000008 133.756,0.024 C134.380003,0.00799992 134.963997,0 135.508,0 C137.844012,0 139.827992,0.399996 141.46,1.2 C143.092008,2.000004 144.419995,3.14399256 145.444,4.632 C146.468005,6.12000744 147.203998,7.9039896 147.652,9.984 C148.100002,12.0640104 148.324,14.3839872 148.324,16.944 C148.324,19.2480115 148.108002,21.4559894 147.676,23.568 C147.243998,25.6800106 146.516005,27.535992 145.492,29.136 C144.467995,30.736008 143.116008,32.0159952 141.436,32.976 C139.755992,33.9360048 137.652013,34.416 135.124,34.416 C134.707998,34.416 134.180003,34.4080001 133.54,34.392 C132.899997,34.3759999 132.236003,34.3440002 131.548,34.296 C130.859997,34.2479998 130.220003,34.2080002 129.628,34.176 C129.035997,34.1439998 128.580002,34.0960003 128.26,34.032 L128.26,0.384 Z M135.7,3.312 L134.668,3.312 C134.299998,3.312 133.940002,3.32799984 133.588,3.36 C133.235998,3.39200016 132.908002,3.42399984 132.604,3.456 C132.299998,3.48800016 132.052001,3.51999984 131.86,3.552 L131.86,30.912 C131.988001,30.9440002 132.219998,30.9679999 132.556,30.984 C132.892002,31.0000001 133.243998,31.0159999 133.612,31.032 C133.980002,31.0480001 134.331998,31.0639999 134.668,31.08 C135.004002,31.0960001 135.251999,31.104 135.412,31.104 C137.172009,31.104 138.643994,30.7200038 139.828,29.952 C141.012006,29.1839962 141.947997,28.1520065 142.636,26.856 C143.324003,25.5599935 143.811999,24.0560086 144.1,22.344 C144.388001,20.6319914 144.532,18.8160096 144.532,16.896 C144.532,15.1999915 144.404001,13.5360082 144.148,11.904 C143.891999,10.2719918 143.436003,8.82400632 142.78,7.56 C142.123997,6.29599368 141.228006,5.27200392 140.092,4.488 C138.955994,3.70399608 137.492009,3.312 135.7,3.312 L135.7,3.312 Z" id="LD" fill="#D0011B"></path>
            <polygon id="W" fill="#D0011B" points="8.18682351 22.624 8.76282351 28.24 8.85882351 28.24 9.43482351 22.528 14.8108235 0.4 16.8748235 0.4 22.2508235 22.576 22.8268235 28.24 22.8748235 28.24 23.5468235 22.528 27.8188235 0.4 31.4188235 0.4 23.9308235 34.528 21.7228235 34.528 16.3948235 12.4 15.7228235 7.264 15.5788235 7.264 14.9068235 12.448 9.57882351 34.528 7.32282351 34.528 -0.309176493 0.4 3.57882351 0.4"></polygon>
            <path d="M55.14,0.728 L57.492,0.728 L43.716,20.648 L43.716,35 L41.604,35 L41.604,20.648 L27.924,0.728 L30.324,0.728 L42.708,18.872 L55.14,0.728 Z M81.932,0.728 L84.284,0.728 L70.508,20.648 L70.508,35 L68.396,35 L68.396,20.648 L54.716,0.728 L57.116,0.728 L69.5,18.872 L81.932,0.728 Z M108.724,0.728 L111.076,0.728 L97.3,20.648 L97.3,35 L95.188,35 L95.188,20.648 L81.508,0.728 L83.908,0.728 L96.292,18.872 L108.724,0.728 Z" id="YYY" fill="#000000"></path>
        </g>
    </g>
</svg>