<?xml version="1.0" encoding="UTF-8" standalone="no"?>
<svg width="166px" height="33px" viewBox="0 0 166 33" version="1.1" xmlns="http://www.w3.org/2000/svg" xmlns:xlink="http://www.w3.org/1999/xlink">
    <!-- Generator: Sketch 39.1 (31720) - http://www.bohemiancoding.com/sketch -->
    <title>Artboard</title>
    <desc>Created with Sketch.</desc>
    <defs></defs>
    <g id="Page-1" stroke="none" stroke-width="1" fill="none" fill-rule="evenodd">
        <g id="Artboard">
            <path d="M109.692,12.552 L109.692,20.808 C109.692,22.9200106 109.652,24.9999898 109.572,27.048 C109.492,29.0960102 109.404,31.1119901 109.308,33.096 C110.844008,33.0319997 112.323993,33 113.748,33 L118.188,33 L122.604,33 C124.076007,33 125.547993,33.0319997 127.02,33.096 C126.859999,32.5839974 126.78,32.1520018 126.78,31.8 C126.78,31.4159981 126.859999,30.9360029 127.02,30.36 C124.619988,30.6800016 122.38001,30.8639998 120.3,30.912 C118.21999,30.9600002 116.044011,30.984 113.772,30.984 C113.74,28.6479883 113.708,26.0000148 113.676,23.04 C113.644,20.0799852 113.628,16.5840202 113.628,12.552 C113.628,10.4399894 113.668,8.36801016 113.748,6.336 C113.828,4.30398984 113.916,2.23201056 114.012,0.12 C113.595998,0.18400032 113.196002,0.23999976 112.812,0.288 C112.427998,0.33600024 112.044002,0.36 111.66,0.36 C111.275998,0.36 110.892002,0.33600024 110.508,0.288 C110.123998,0.23999976 109.724002,0.18400032 109.308,0.12 C109.404,2.23201056 109.492,4.30398984 109.572,6.336 C109.652,8.36801016 109.692,10.4399894 109.692,12.552 L109.692,12.552 Z M134.032,12.552 L134.032,20.808 C134.032,22.9200106 133.992,24.9999898 133.912,27.048 C133.832,29.0960102 133.744,31.1119901 133.648,33.096 C134.736005,33.0319997 135.807995,33 136.864,33 L140.08,33 C141.168005,33 142.239995,33.0159998 143.296,33.048 C144.352005,33.0800002 145.423995,33.096 146.512,33.096 C148.400009,33.096 150.37599,32.8160028 152.44,32.256 C154.50401,31.6959972 156.391991,30.7440067 158.104,29.4 C159.816009,28.0559933 161.223994,26.288011 162.328,24.096 C163.432006,21.903989 163.984,19.208016 163.984,16.008 C163.984,13.5439877 163.688003,11.3280098 163.096,9.36 C162.503997,7.39199016 161.568006,5.7280068 160.288,4.368 C159.007994,3.0079932 157.36801,1.96000368 155.368,1.224 C153.36799,0.48799632 150.960014,0.12 148.144,0.12 C146.927994,0.12 145.720006,0.1599996 144.52,0.24 C143.319994,0.3200004 142.112006,0.36 140.896,0.36 C139.679994,0.36 138.472006,0.33600024 137.272,0.288 C136.071994,0.23999976 134.864006,0.18400032 133.648,0.12 C133.744,2.23201056 133.832,4.30398984 133.912,6.336 C133.992,8.36801016 134.032,10.4399894 134.032,12.552 L134.032,12.552 Z M137.968,20.808 L137.968,12.552 C137.968,10.8239914 137.992,9.1200084 138.04,7.44 C138.088,5.7599916 138.16,4.15200768 138.256,2.616 C139.248005,2.48799936 140.367994,2.37600048 141.616,2.28 C142.864006,2.18399952 144.207993,2.136 145.648,2.136 C147.63201,2.136 149.455992,2.335998 151.12,2.736 C152.784008,3.136002 154.215994,3.8559948 155.416,4.896 C156.616006,5.9360052 157.559997,7.35199104 158.248,9.144 C158.936003,10.936009 159.28,13.2239861 159.28,16.008 C159.28,19.1760158 158.840004,21.75999 157.96,23.76 C157.079996,25.76001 155.944007,27.3359942 154.552,28.488 C153.159993,29.6400058 151.584009,30.4239979 149.824,30.84 C148.063991,31.2560021 146.304009,31.464 144.544,31.464 C143.327994,31.464 142.144006,31.4240004 140.992,31.344 C139.839994,31.2639996 138.928003,31.1440008 138.256,30.984 C138.063999,27.6559834 137.968,24.2640173 137.968,20.808 L137.968,20.808 Z" id="LD" fill="#D0011B"></path>
            <path d="M89.363675,0.0280355145 L77.5,17.3425882 L65.6586601,-0.0063516806 L65.8423735,-0.272 L64.5181727,-0.272 L63.1473725,-0.272 L63.353421,0.0280355145 L51.489746,17.3425882 L39.4670906,-0.272 L37.1371186,-0.272 L50.4179589,19.0667675 L50.4179589,33 L52.4683343,33 L52.4683343,19.0667675 L64.4901615,1.68328913 L76.4282129,19.0667675 L76.4282129,33 L78.4785882,33 L78.4785882,19.0667675 L90.5004154,1.68328913 L102.438467,19.0667675 L102.438467,33 L104.488842,33 L104.488842,19.0667675 L117.862881,-0.272 L115.579509,-0.272 L103.510254,17.3425882 L91.668914,-0.0063516806 L91.8526275,-0.272 L90.5284267,-0.272 L89.1576265,-0.272 L89.363675,0.0280355145 Z" id="YYY" fill="#FFFFFF"></path>
            <path d="M10.5708235,33.096 C11.0828261,33.0319997 11.6428205,33 12.2508235,33 C12.8588265,33 13.4188209,33.0319997 13.9308235,33.096 C14.4108259,31.687993 14.9388206,30.1200086 15.5148235,28.392 C16.0908264,26.6639914 16.6828205,24.904009 17.2908235,23.112 C17.8988265,21.319991 18.5068205,19.5440088 19.1148235,17.784 C19.7228265,16.0239912 20.2908209,14.3760077 20.8188235,12.84 C21.3468261,11.3039923 21.8268213,9.92000616 22.2588235,8.688 C22.6908257,7.45599384 23.0348222,6.47200368 23.2908235,5.736 L23.3868235,5.736 C25.0188317,10.536024 26.5388165,15.1839775 27.9468235,19.68 C29.3548305,24.1760225 30.7788163,28.6479778 32.2188235,33.096 C32.7308261,33.0319997 33.2748206,33 33.8508235,33 C34.4268264,33 34.9708209,33.0319997 35.4828235,33.096 C35.7708249,32.3279962 36.2108205,31.0720087 36.8028235,29.328 C37.3948265,27.5839913 38.0668197,25.616011 38.8188235,23.424 C39.5708273,21.231989 40.3548194,18.9200122 41.1708235,16.488 C41.9868276,14.0559878 42.7708197,11.7520109 43.5228235,9.576 C44.2748273,7.39998912 44.9548205,5.46400848 45.5628235,3.768 C46.1708265,2.07199152 46.6348219,0.85600368 46.9548235,0.12 C46.6668221,0.18400032 46.3868249,0.23999976 46.1148235,0.288 C45.8428221,0.33600024 45.5628249,0.36 45.2748235,0.36 C44.9868221,0.36 44.7068249,0.33600024 44.4348235,0.288 C44.1628221,0.23999976 43.8828249,0.18400032 43.5948235,0.12 C43.4348227,0.82400352 43.1388257,1.91199264 42.7068235,3.384 C42.2748213,4.85600736 41.7788263,6.52799064 41.2188235,8.4 C40.6588207,10.2720094 40.0668266,12.2399897 39.4428235,14.304 C38.8188204,16.3680103 38.2108265,18.3359906 37.6188235,20.208 C37.0268205,22.0800094 36.4988258,23.7599926 36.0348235,25.248 C35.5708212,26.7360074 35.2268246,27.8319965 35.0028235,28.536 L34.9068235,28.536 C34.6188221,27.7039958 34.226826,26.5520074 33.7308235,25.08 C33.234821,23.6079926 32.6828265,21.9600091 32.0748235,20.136 C31.4668205,18.3119909 30.8348268,16.4080099 30.1788235,14.424 C29.5228202,12.4399901 28.9068264,10.5280092 28.3308235,8.688 C27.7548206,6.8479908 27.2348258,5.17600752 26.7708235,3.672 C26.3068212,2.16799248 25.9628246,0.98400432 25.7388235,0.12 C25.0988203,0.2800008 24.5708256,0.36 24.1548235,0.36 C23.7388214,0.36 23.2108267,0.2800008 22.5708235,0.12 C22.3788225,0.920004 22.0588257,2.06399256 21.6108235,3.552 C21.1628213,5.04000744 20.6508264,6.68799096 20.0748235,8.496 C19.4988206,10.304009 18.8748269,12.1999901 18.2028235,14.184 C17.5308201,16.1680099 16.8908265,18.0799908 16.2828235,19.92 C15.6748205,21.7600092 15.1148261,23.4399924 14.6028235,24.96 C14.0908209,26.4800076 13.6908249,27.6719957 13.4028235,28.536 L13.3068235,28.536 C12.3468187,25.4959848 11.4908273,22.7680121 10.7388235,20.352 C9.98681975,17.9359879 9.28282679,15.632011 8.62682351,13.44 C7.97082023,11.247989 7.35482639,9.08801064 6.77882351,6.96 C6.20282063,4.83198936 5.61082655,2.55201216 5.00282351,0.12 C4.58682143,0.18400032 4.18682543,0.23999976 3.80282351,0.288 C3.41882159,0.33600024 3.01882559,0.36 2.60282351,0.36 C2.18682143,0.36 1.78682543,0.33600024 1.40282351,0.288 C1.01882159,0.23999976 0.618825587,0.18400032 0.202823507,0.12 C0.522825107,0.95200416 0.962820707,2.23199136 1.52282351,3.96 C2.08282631,5.68800864 2.69882015,7.6319892 3.37082351,9.792 C4.04282687,11.9520108 4.74681983,14.2239881 5.48282351,16.608 C6.21882719,18.9920119 6.92282015,21.2719891 7.59482351,23.448 C8.26682687,25.6240109 8.86682087,27.5759914 9.39482351,29.304 C9.92282615,31.0320086 10.3148222,32.295996 10.5708235,33.096 L10.5708235,33.096 Z" id="W" fill="#D0011B"></path>
        </g>
    </g>
</svg>