<?xml version="1.0" encoding="UTF-8" standalone="no"?>
<svg width="291px" height="151px" viewBox="0 0 291 151" version="1.1" xmlns="http://www.w3.org/2000/svg" xmlns:xlink="http://www.w3.org/1999/xlink">
    <!-- Generator: Sketch 39.1 (31720) - http://www.bohemiancoding.com/sketch -->
    <title>Artboard 2</title>
    <desc>Created with Sketch.</desc>
    <defs></defs>
    <g id="Page-1" stroke="none" stroke-width="1" fill="none" fill-rule="evenodd" fill-opacity="0.2">
        <g id="Artboard-2" fill="#FFA8A8">
            <path d="M10.386,36.096 C10.8980026,36.0319997 11.457997,36 12.066,36 C12.674003,36 13.2339974,36.0319997 13.746,36.096 C14.2260024,34.687993 14.7539971,33.1200086 15.33,31.392 C15.9060029,29.6639914 16.497997,27.904009 17.106,26.112 C17.714003,24.319991 18.321997,22.5440088 18.93,20.784 C19.538003,19.0239912 20.1059974,17.3760077 20.634,15.84 C21.1620026,14.3039923 21.6419978,12.9200062 22.074,11.688 C22.5060022,10.4559938 22.8499987,9.47200368 23.106,8.736 L23.202,8.736 C24.8340082,13.536024 26.353993,18.1839775 27.762,22.68 C29.170007,27.1760225 30.5939928,31.6479778 32.034,36.096 C32.5460026,36.0319997 33.0899971,36 33.666,36 C34.2420029,36 34.7859974,36.0319997 35.298,36.096 C35.5860014,35.3279962 36.025997,34.0720087 36.618,32.328 C37.210003,30.5839913 37.8819962,28.616011 38.634,26.424 C39.3860038,24.231989 40.1699959,21.9200122 40.986,19.488 C41.8020041,17.0559878 42.5859962,14.7520109 43.338,12.576 C44.0900038,10.3999891 44.769997,8.46400848 45.378,6.768 C45.986003,5.07199152 46.4499984,3.85600368 46.77,3.12 C46.4819986,3.18400032 46.2020014,3.23999976 45.93,3.288 C45.6579986,3.33600024 45.3780014,3.36 45.09,3.36 C44.8019986,3.36 44.5220014,3.33600024 44.25,3.288 C43.9779986,3.23999976 43.6980014,3.18400032 43.41,3.12 C43.2499992,3.82400352 42.9540022,4.91199264 42.522,6.384 C42.0899978,7.85600736 41.5940028,9.52799064 41.034,11.4 C40.4739972,13.2720094 39.8820031,15.2399897 39.258,17.304 C38.6339969,19.3680103 38.026003,21.3359906 37.434,23.208 C36.841997,25.0800094 36.3140023,26.7599926 35.85,28.248 C35.3859977,29.7360074 35.0420011,30.8319965 34.818,31.536 L34.722,31.536 C34.4339986,30.7039958 34.0420025,29.5520074 33.546,28.08 C33.0499975,26.6079926 32.498003,24.9600091 31.89,23.136 C31.281997,21.3119909 30.6500033,19.4080099 29.994,17.424 C29.3379967,15.4399901 28.7220029,13.5280092 28.146,11.688 C27.5699971,9.8479908 27.0500023,8.17600752 26.586,6.672 C26.1219977,5.16799248 25.7780011,3.98400432 25.554,3.12 C24.9139968,3.2800008 24.3860021,3.36 23.97,3.36 C23.5539979,3.36 23.0260032,3.2800008 22.386,3.12 C22.193999,3.920004 21.8740022,5.06399256 21.426,6.552 C20.9779978,8.04000744 20.4660029,9.68799096 19.89,11.496 C19.3139971,13.304009 18.6900034,15.1999901 18.018,17.184 C17.3459966,19.1680099 16.706003,21.0799908 16.098,22.92 C15.489997,24.7600092 14.9300026,26.4399924 14.418,27.96 C13.9059974,29.4800076 13.5060014,30.6719957 13.218,31.536 L13.122,31.536 C12.1619952,28.4959848 11.3060038,25.7680121 10.554,23.352 C9.80199623,20.9359879 9.09800327,18.632011 8.44199999,16.44 C7.78599671,14.247989 7.17000287,12.0880106 6.59399999,9.96 C6.01799711,7.83198936 5.42600303,5.55201216 4.81799999,3.12 C4.40199791,3.18400032 4.00200191,3.23999976 3.61799999,3.288 C3.23399807,3.33600024 2.83400207,3.36 2.41799999,3.36 C2.00199791,3.36 1.60200191,3.33600024 1.21799999,3.288 C0.833998071,3.23999976 0.434002071,3.18400032 0.0179999911,3.12 C0.338001591,3.95200416 0.777997191,5.23199136 1.33799999,6.96 C1.89800279,8.68800864 2.51399663,10.6319892 3.18599999,12.792 C3.85800335,14.9520108 4.56199631,17.2239881 5.29799999,19.608 C6.03400367,21.9920119 6.73799663,24.2719891 7.40999999,26.448 C8.08200335,28.6240109 8.68199735,30.5759914 9.20999999,32.304 C9.73800263,34.0320086 10.1299987,35.295996 10.386,36.096 L10.386,36.096 Z M51.094,4.944 C51.094,5.61600336 51.3339976,6.1919976 51.814,6.672 C52.2940024,7.1520024 52.8699966,7.392 53.542,7.392 C54.2140034,7.392 54.7899976,7.1520024 55.27,6.672 C55.7500024,6.1919976 55.99,5.61600336 55.99,4.944 C55.99,4.27199664 55.7500024,3.6960024 55.27,3.216 C54.7899976,2.7359976 54.2140034,2.496 53.542,2.496 C52.8699966,2.496 52.2940024,2.7359976 51.814,3.216 C51.3339976,3.6960024 51.094,4.27199664 51.094,4.944 L51.094,4.944 Z M51.766,22.272 L51.766,27.264 C51.766,28.7040072 51.7420002,30.2159921 51.694,31.8 C51.6459998,33.3840079 51.5420008,34.8159936 51.382,36.096 C52.1180037,36.0319997 52.8379965,36 53.542,36 C54.2460035,36 54.9659963,36.0319997 55.702,36.096 C55.5419992,34.8159936 55.4380002,33.3840079 55.39,31.8 C55.3419998,30.2159921 55.318,28.7040072 55.318,27.264 L55.318,22.272 C55.318,20.8319928 55.3419998,19.3200079 55.39,17.736 C55.4380002,16.1519921 55.5419992,14.6720069 55.702,13.296 C54.8059955,13.4560008 54.0860027,13.536 53.542,13.536 C52.9979973,13.536 52.2780045,13.4560008 51.382,13.296 C51.5420008,14.6720069 51.6459998,16.1519921 51.694,17.736 C51.7420002,19.3200079 51.766,20.8319928 51.766,22.272 L51.766,22.272 Z M65.45,13.728 L65.45,22.416 C65.45,23.5040054 65.4420001,24.6879936 65.426,25.968 C65.4099999,27.2480064 65.3860002,28.5119938 65.354,29.76 C65.3219998,31.0080062 65.2820002,32.1919944 65.234,33.312 C65.1859998,34.4320056 65.1300003,35.3599963 65.066,36.096 C65.8020037,36.0319997 66.5219965,36 67.226,36 C67.9300035,36 68.6499963,36.0319997 69.386,36.096 C69.3219997,35.3599963 69.2660002,34.4320056 69.218,33.312 C69.1699998,32.1919944 69.1300002,31.0080062 69.098,29.76 C69.0659998,28.5119938 69.0420001,27.2480064 69.026,25.968 C69.0099999,24.6879936 69.002,23.5040054 69.002,22.416 L69.002,13.728 C69.002,12.6399946 69.0099999,11.4560064 69.026,10.176 C69.0420001,8.8959936 69.0659998,7.63200624 69.098,6.384 C69.1300002,5.13599376 69.1699998,3.94400568 69.218,2.808 C69.2660002,1.67199432 69.3219997,0.704004 69.386,-0.096 C68.4899955,0.0640008 67.7700027,0.144 67.226,0.144 C66.6819973,0.144 65.9620045,0.0640008 65.066,-0.096 C65.1300003,0.704004 65.1859998,1.67199432 65.234,2.808 C65.2820002,3.94400568 65.3219998,5.13599376 65.354,6.384 C65.3860002,7.63200624 65.4099999,8.8959936 65.426,10.176 C65.4420001,11.4560064 65.45,12.6399946 65.45,13.728 L65.45,13.728 Z M80.478,25.2 C80.478,23.7599928 80.6139986,22.4080063 80.886,21.144 C81.1580014,19.8799937 81.5739972,18.7760047 82.134,17.832 C82.6940028,16.8879953 83.3979958,16.1520026 84.246,15.624 C85.0940042,15.0959974 86.0939942,14.832 87.246,14.832 C89.5500115,14.832 91.2939941,15.6399919 92.478,17.256 C93.6620059,18.8720081 94.254,21.2159846 94.254,24.288 C94.254,25.5680064 94.1180014,26.8479936 93.846,28.128 C93.5739986,29.4080064 93.142003,30.551995 92.55,31.56 C91.957997,32.568005 91.2140045,33.3839969 90.318,34.008 C89.4219955,34.6320031 88.3500062,34.944 87.102,34.944 C86.3339962,34.944 85.550004,34.8000014 84.75,34.512 C83.949996,34.2239986 83.2380031,33.7040038 82.614,32.952 C81.9899969,32.1999962 81.478002,31.2000062 81.078,29.952 C80.677998,28.7039938 80.478,27.1200096 80.478,25.2 L80.478,25.2 Z M94.206,31.536 L94.062,36.096 C94.7020032,36.0319997 95.3099971,36 95.886,36 C96.494003,36 97.1179968,36.0319997 97.758,36.096 C97.7259998,34.2399907 97.6940002,32.4320088 97.662,30.672 C97.6299998,28.9119912 97.614,26.928011 97.614,24.72 C97.614,22.6719898 97.6299998,20.4160123 97.662,17.952 C97.6940002,15.4879877 97.7339998,13.0880117 97.782,10.752 C97.8300002,8.41598832 97.8859997,6.28000968 97.95,4.344 C98.0140003,2.40799032 98.0939995,0.92800512 98.19,-0.096 C97.7739979,-0.03199968 97.3980017,0.02399976 97.062,0.072 C96.7259983,0.12000024 96.3820018,0.144 96.03,0.144 C95.6779982,0.144 95.3260018,0.12000024 94.974,0.072 C94.6219982,0.02399976 94.2540019,-0.03199968 93.87,-0.096 C93.9020002,0.67200384 93.9259999,1.55199504 93.942,2.544 C93.9580001,3.53600496 93.9739999,4.5919944 93.99,5.712 C94.0060001,6.8320056 94.0219999,8.00799384 94.038,9.24 C94.0540001,10.4720062 94.062,11.6959939 94.062,12.912 L94.062,17.616 L93.966,17.616 C92.5899931,14.415984 90.1260178,12.816 86.574,12.816 C85.3259938,12.816 84.0860062,13.0639975 82.854,13.56 C81.6219938,14.0560025 80.5180049,14.807995 79.542,15.816 C78.5659951,16.824005 77.774003,18.0799925 77.166,19.584 C76.557997,21.0880075 76.254,22.8639898 76.254,24.912 C76.254,26.9920104 76.5339972,28.7759926 77.094,30.264 C77.6540028,31.7520074 78.3899954,32.9679953 79.302,33.912 C80.2140046,34.8560047 81.2539942,35.5359979 82.422,35.952 C83.5900058,36.3680021 84.7819939,36.576 85.998,36.576 C87.1820059,36.576 88.2219955,36.4160016 89.118,36.096 C90.0140045,35.7759984 90.7899967,35.3600026 91.446,34.848 C92.1020033,34.3359974 92.6459978,33.784003 93.078,33.192 C93.5100022,32.599997 93.8539987,32.0480026 94.11,31.536 L94.206,31.536 Z M62.68,93.096 C63.1920025,93.0319997 63.7519969,93 64.36,93 C64.968003,93 65.5279974,93.0319997 66.04,93.096 C66.5200024,91.687993 67.0479971,90.1200086 67.624,88.392 C68.2000029,86.6639914 68.7919969,84.904009 69.4,83.112 C70.008003,81.319991 70.6159969,79.5440088 71.224,77.784 C71.832003,76.0239912 72.3999973,74.3760077 72.928,72.84 C73.4560026,71.3039923 73.9359978,69.9200062 74.368,68.688 C74.8000021,67.4559938 75.1439987,66.4720037 75.4,65.736 L75.496,65.736 C77.1280081,70.536024 78.6479929,75.1839775 80.056,79.68 C81.464007,84.1760225 82.8879928,88.6479778 84.328,93.096 C84.8400025,93.0319997 85.3839971,93 85.96,93 C86.5360029,93 87.0799974,93.0319997 87.592,93.096 C87.8800014,92.3279962 88.319997,91.0720087 88.912,89.328 C89.5040029,87.5839913 90.1759962,85.616011 90.928,83.424 C91.6800037,81.231989 92.4639959,78.9200122 93.28,76.488 C94.0960041,74.0559878 94.8799962,71.7520109 95.632,69.576 C96.3840037,67.3999891 97.0639969,65.4640085 97.672,63.768 C98.280003,62.0719915 98.7439984,60.8560037 99.064,60.12 C98.7759985,60.1840003 98.4960013,60.2399998 98.224,60.288 C97.9519986,60.3360002 97.6720014,60.36 97.384,60.36 C97.0959985,60.36 96.8160013,60.3360002 96.544,60.288 C96.2719986,60.2399998 95.9920014,60.1840003 95.704,60.12 C95.5439992,60.8240035 95.2480021,61.9119926 94.816,63.384 C94.3839978,64.8560074 93.8880028,66.5279906 93.328,68.4 C92.7679972,70.2720094 92.1760031,72.2399897 91.552,74.304 C90.9279969,76.3680103 90.3200029,78.3359906 89.728,80.208 C89.135997,82.0800094 88.6080023,83.7599926 88.144,85.248 C87.6799977,86.7360074 87.3360011,87.8319965 87.112,88.536 L87.016,88.536 C86.7279985,87.7039958 86.3360025,86.5520074 85.84,85.08 C85.3439975,83.6079926 84.792003,81.9600091 84.184,80.136 C83.5759969,78.3119909 82.9440033,76.4080099 82.288,74.424 C81.6319967,72.4399901 81.0160029,70.5280092 80.44,68.688 C79.8639971,66.8479908 79.3440023,65.1760075 78.88,63.672 C78.4159977,62.1679925 78.0720011,60.9840043 77.848,60.12 C77.2079968,60.2800008 76.6800021,60.36 76.264,60.36 C75.8479979,60.36 75.3200032,60.2800008 74.68,60.12 C74.487999,60.920004 74.1680022,62.0639926 73.72,63.552 C73.2719977,65.0400074 72.7600029,66.687991 72.184,68.496 C71.6079971,70.304009 70.9840033,72.1999901 70.312,74.184 C69.6399966,76.1680099 69.000003,78.0799908 68.392,79.92 C67.7839969,81.7600092 67.2240025,83.4399924 66.712,84.96 C66.1999974,86.4800076 65.8000014,87.6719957 65.512,88.536 L65.416,88.536 C64.4559952,85.4959848 63.6000037,82.7680121 62.848,80.352 C62.0959962,77.9359879 61.3920033,75.632011 60.736,73.44 C60.0799967,71.247989 59.4640029,69.0880106 58.888,66.96 C58.3119971,64.8319894 57.720003,62.5520122 57.112,60.12 C56.6959979,60.1840003 56.2960019,60.2399998 55.912,60.288 C55.5279981,60.3360002 55.1280021,60.36 54.712,60.36 C54.2959979,60.36 53.8960019,60.3360002 53.512,60.288 C53.1279981,60.2399998 52.7280021,60.1840003 52.312,60.12 C52.6320016,60.9520042 53.0719972,62.2319914 53.632,63.96 C54.1920028,65.6880086 54.8079966,67.6319892 55.48,69.792 C56.1520033,71.9520108 56.8559963,74.2239881 57.592,76.608 C58.3280037,78.9920119 59.0319966,81.2719891 59.704,83.448 C60.3760033,85.6240109 60.9759973,87.5759914 61.504,89.304 C62.0320026,91.0320086 62.4239987,92.295996 62.68,93.096 L62.68,93.096 Z M104.156,81.768 C104.156,80.4239933 104.275999,79.1280062 104.516,77.88 C104.756001,76.6319938 105.163997,75.5200049 105.74,74.544 C106.316003,73.5679951 107.083995,72.7920029 108.044,72.216 C109.004005,71.6399971 110.187993,71.352 111.596,71.352 C113.004007,71.352 114.187995,71.6399971 115.148,72.216 C116.108005,72.7920029 116.875997,73.5679951 117.452,74.544 C118.028003,75.5200049 118.435999,76.6319938 118.676,77.88 C118.916001,79.1280062 119.036,80.4239933 119.036,81.768 C119.036,83.1120067 118.916001,84.4079938 118.676,85.656 C118.435999,86.9040062 118.028003,88.0159951 117.452,88.992 C116.875997,89.9680049 116.108005,90.7439971 115.148,91.32 C114.187995,91.8960029 113.004007,92.184 111.596,92.184 C110.187993,92.184 109.004005,91.8960029 108.044,91.32 C107.083995,90.7439971 106.316003,89.9680049 105.74,88.992 C105.163997,88.0159951 104.756001,86.9040062 104.516,85.656 C104.275999,84.4079938 104.156,83.1120067 104.156,81.768 L104.156,81.768 Z M99.932,81.768 C99.932,83.9440109 100.275997,85.7919924 100.964,87.312 C101.652003,88.8320076 102.555994,90.0639953 103.676,91.008 C104.796006,91.9520047 106.051993,92.6159981 107.444,93 C108.836007,93.3840019 110.219993,93.576 111.596,93.576 C113.004007,93.576 114.395993,93.3840019 115.772,93 C117.148007,92.6159981 118.395994,91.9520047 119.516,91.008 C120.636006,90.0639953 121.539997,88.8320076 122.228,87.312 C122.916003,85.7919924 123.26,83.9440109 123.26,81.768 C123.26,79.5919891 122.916003,77.7440076 122.228,76.224 C121.539997,74.7039924 120.636006,73.4720047 119.516,72.528 C118.395994,71.5839953 117.148007,70.8960022 115.772,70.464 C114.395993,70.0319978 113.004007,69.816 111.596,69.816 C110.219993,69.816 108.836007,70.0319978 107.444,70.464 C106.051993,70.8960022 104.796006,71.5839953 103.676,72.528 C102.555994,73.4720047 101.652003,74.7039924 100.964,76.224 C100.275997,77.7440076 99.932,79.5919891 99.932,81.768 L99.932,81.768 Z M129.024,79.272 L129.024,84.264 C129.024,85.7040072 129,87.2159921 128.952,88.8 C128.904,90.3840079 128.800001,91.8159936 128.64,93.096 C129.376004,93.0319997 130.095996,93 130.8,93 C131.504004,93 132.223996,93.0319997 132.96,93.096 C132.799999,91.8159936 132.696,90.3840079 132.648,88.8 C132.6,87.2159921 132.576,85.7040072 132.576,84.264 L132.576,80.184 C132.576,77.6879875 133.071995,75.7520069 134.064,74.376 C135.056005,72.9999931 136.607989,72.312 138.72,72.312 C139.520004,72.312 140.295996,72.5279978 141.048,72.96 C141.800004,73.3920022 142.351998,73.911997 142.704,74.52 C142.896001,74.9040019 143.047999,75.2559984 143.16,75.576 C143.272001,75.8960016 143.36,76.3039975 143.424,76.8 C143.488,77.2960025 143.528,77.9679958 143.544,78.816 C143.56,79.6640042 143.568,80.8399925 143.568,82.344 C143.568,84.1040088 143.536,85.8959909 143.472,87.72 C143.408,89.5440091 143.296001,91.3359912 143.136,93.096 C143.872004,93.0319997 144.575997,93 145.248,93 C145.920003,93 146.623996,93.0319997 147.36,93.096 C147.296,91.7519933 147.24,90.5120057 147.192,89.376 C147.144,88.2399943 147.12,86.9840069 147.12,85.608 C147.12,83.3359886 147.136,81.5520065 147.168,80.256 C147.2,78.9599935 147.256,77.9520036 147.336,77.232 C147.416,76.5119964 147.527999,75.9760018 147.672,75.624 C147.816001,75.2719982 148.015999,74.9200018 148.272,74.568 C148.720002,73.959997 149.343996,73.4320022 150.144,72.984 C150.944004,72.5359978 151.919994,72.312 153.072,72.312 C154.032005,72.312 154.831997,72.4639985 155.472,72.768 C156.112003,73.0720015 156.623998,73.4799974 157.008,73.992 C157.392002,74.5040026 157.671999,75.1119965 157.848,75.816 C158.024001,76.5200035 158.112,77.271996 158.112,78.072 C158.112,82.4240218 158.056001,85.8159878 157.944,88.248 C157.831999,90.6800122 157.728,92.295996 157.632,93.096 C157.984002,93.0319997 158.335998,93 158.688,93 L159.744,93 L160.752,93 C161.104002,93 161.455998,93.0319997 161.808,93.096 C161.744,92.1679954 161.704,91.304004 161.688,90.504 C161.672,89.703996 161.664,88.8720043 161.664,88.008 C161.664,86.599993 161.68,85.3600054 161.712,84.288 C161.744,83.2159946 161.776,82.2560042 161.808,81.408 C161.84,80.5599958 161.872,79.8160032 161.904,79.176 C161.936,78.5359968 161.952,77.9440027 161.952,77.4 C161.952,76.0559933 161.768002,74.9040048 161.4,73.944 C161.031998,72.9839952 160.520003,72.200003 159.864,71.592 C159.207997,70.983997 158.432004,70.5360014 157.536,70.248 C156.639996,69.9599986 155.664005,69.816 154.608,69.816 C152.879991,69.816 151.352007,70.2239959 150.024,71.04 C148.695993,71.8560041 147.648004,73.0319923 146.88,74.568 L146.784,74.568 C146.623999,73.8959966 146.320002,73.264003 145.872,72.672 C145.423998,72.079997 144.888003,71.5760021 144.264,71.16 C143.639997,70.7439979 142.944004,70.4160012 142.176,70.176 C141.407996,69.9359988 140.624004,69.816 139.824,69.816 C136.751985,69.816 134.368008,71.2559856 132.672,74.136 L132.576,74.136 C132.576,72.8559936 132.624,71.5760064 132.72,70.296 C132.303998,70.3600003 131.944002,70.4159998 131.64,70.464 C131.335998,70.5120002 131.056001,70.536 130.8,70.536 C130.255997,70.536 129.536004,70.4560008 128.64,70.296 C128.800001,71.6720069 128.904,73.1519921 128.952,74.736 C129,76.3200079 129.024,77.8319928 129.024,79.272 L129.024,79.272 Z M181.588,81.144 L181.396,88.344 C180.851997,89.2400045 180.076005,90.0239966 179.068,90.696 C178.059995,91.3680034 176.948006,91.704 175.732,91.704 C174.675995,91.704 173.716004,91.3200038 172.852,90.552 C171.987996,89.7839962 171.556,88.6480075 171.556,87.144 C171.556,86.2479955 171.723998,85.5120029 172.06,84.936 C172.396002,84.3599971 172.843997,83.8800019 173.404,83.496 C173.964003,83.1119981 174.603996,82.8080011 175.324,82.584 C176.044004,82.3599989 176.771996,82.1760007 177.508,82.032 C178.244004,81.8879993 178.971996,81.7520006 179.692,81.624 C180.412004,81.4959994 181.043997,81.336001 181.588,81.144 L181.588,81.144 Z M169.732,72.6 L169.732,75.096 L170.26,75.096 C170.804003,74.0719949 171.627994,73.2720029 172.732,72.696 C173.836006,72.1199971 175.027994,71.832 176.308,71.832 C177.268005,71.832 178.083997,71.9999983 178.756,72.336 C179.428003,72.6720017 179.971998,73.1119973 180.388,73.656 C180.804002,74.2000027 181.107999,74.8399963 181.3,75.576 C181.492001,76.3120037 181.588,77.079996 181.588,77.88 C181.588,78.3600024 181.54,78.7519985 181.444,79.056 C181.348,79.3600015 181.068002,79.6239989 180.604,79.848 C180.139998,80.0720011 179.420005,80.287999 178.444,80.496 C177.467995,80.704001 176.116009,80.9519986 174.388,81.24 C172.275989,81.5920018 170.620006,82.2959947 169.42,83.352 C168.219994,84.4080053 167.62,85.8959904 167.62,87.816 C167.62,88.7440046 167.803998,89.5679964 168.172,90.288 C168.540002,91.0080036 169.019997,91.6239974 169.612,92.136 C170.204003,92.6480026 170.883996,93.0159989 171.652,93.24 C172.420004,93.4640011 173.203996,93.576 174.004,93.576 C175.636008,93.576 177.011994,93.3040027 178.132,92.76 C179.252006,92.2159973 180.387994,91.3680058 181.54,90.216 C181.636,91.0480042 181.955997,91.7279974 182.5,92.256 C183.044003,92.7840026 183.827995,93.048 184.852,93.048 C185.492003,93.048 186.075997,93.0000005 186.604,92.904 C187.132003,92.8079995 187.571998,92.6800008 187.924,92.52 L187.924,91.464 C187.763999,91.5600005 187.596001,91.6159999 187.42,91.632 C187.243999,91.6480001 187.076001,91.656 186.916,91.656 C186.435998,91.656 186.076001,91.5440011 185.836,91.32 C185.595999,91.0959989 185.412001,90.8160017 185.284,90.48 C185.155999,90.1439983 185.084,89.7600022 185.068,89.328 C185.052,88.8959978 185.044,88.4880019 185.044,88.104 C185.044,86.0879899 185.076,84.176009 185.14,82.368 C185.204,80.559991 185.236,78.7440091 185.236,76.92 C185.236,75.8639947 185.044002,74.8960044 184.66,74.016 C184.275998,73.1359956 183.748003,72.3840031 183.076,71.76 C182.403997,71.1359969 181.588005,70.6560017 180.628,70.32 C179.667995,69.9839983 178.612006,69.816 177.46,69.816 C176.179994,69.816 174.932006,70.0079981 173.716,70.392 C172.499994,70.7760019 171.172007,71.5119946 169.732,72.6 L169.732,72.6 Z M209.24,79.608 L209.24,82.536 C209.24,84.3920093 209.2,86.1999912 209.12,87.96 C209.04,89.7200088 208.968,91.4319917 208.904,93.096 C209.544003,93.0319997 210.199997,93 210.872,93 C211.576004,93 212.247997,93.0319997 212.888,93.096 C212.856,92.6479978 212.832,92.1760025 212.816,91.68 C212.8,91.1839975 212.792,90.6800026 212.792,90.168 L212.792,87.048 C212.792,85.4159918 212.824,83.8720073 212.888,82.416 C212.952,80.9599927 212.984,79.5440069 212.984,78.168 C212.984,76.5039917 212.752002,75.1360054 212.288,74.064 C211.823998,72.9919946 211.224004,72.1440031 210.488,71.52 C209.751996,70.8959969 208.928005,70.4560013 208.016,70.2 C207.103995,69.9439987 206.200004,69.816 205.304,69.816 C203.575991,69.816 202.088006,70.1919962 200.84,70.944 C199.591994,71.6960038 198.520004,72.7599931 197.624,74.136 L197.528,74.136 C197.528,72.8559936 197.576,71.5760064 197.672,70.296 C197.255998,70.3600003 196.896002,70.4159998 196.592,70.464 C196.287998,70.5120002 196.008001,70.536 195.752,70.536 C195.207997,70.536 194.488004,70.4560008 193.592,70.296 C193.752001,71.6720069 193.856,73.1519921 193.904,74.736 C193.952,76.3200079 193.976,77.8319928 193.976,79.272 L193.976,84.264 C193.976,85.7040072 193.952,87.2159921 193.904,88.8 C193.856,90.3840079 193.752001,91.8159936 193.592,93.096 C194.328004,93.0319997 195.047996,93 195.752,93 C196.456004,93 197.175996,93.0319997 197.912,93.096 C197.751999,91.8159936 197.648,90.3840079 197.6,88.8 C197.552,87.2159921 197.528,85.7040072 197.528,84.264 L197.528,80.184 C197.528,77.6879875 198.047995,75.7520069 199.088,74.376 C200.128005,72.9999931 201.767989,72.312 204.008,72.312 C205.640008,72.312 206.919995,72.9279938 207.848,74.16 C208.776005,75.3920062 209.24,77.207988 209.24,79.608 L209.24,79.608 Z M128.216,150.096 C128.728003,150.032 129.287997,150 129.896,150 C130.504003,150 131.063997,150.032 131.576,150.096 C132.056002,148.687993 132.583997,147.120009 133.16,145.392 C133.736003,143.663991 134.327997,141.904009 134.936,140.112 C135.544003,138.319991 136.151997,136.544009 136.76,134.784 C137.368003,133.023991 137.935997,131.376008 138.464,129.84 C138.992003,128.303992 139.471998,126.920006 139.904,125.688 C140.336002,124.455994 140.679999,123.472004 140.936,122.736 L141.032,122.736 C142.664008,127.536024 144.183993,132.183978 145.592,136.68 C147.000007,141.176022 148.423993,145.647978 149.864,150.096 C150.376003,150.032 150.919997,150 151.496,150 C152.072003,150 152.615997,150.032 153.128,150.096 C153.416001,149.327996 153.855997,148.072009 154.448,146.328 C155.040003,144.583991 155.711996,142.616011 156.464,140.424 C157.216004,138.231989 157.999996,135.920012 158.816,133.488 C159.632004,131.055988 160.415996,128.752011 161.168,126.576 C161.920004,124.399989 162.599997,122.464008 163.208,120.768 C163.816003,119.071992 164.279998,117.856004 164.6,117.12 C164.311999,117.184 164.032001,117.24 163.76,117.288 C163.487999,117.336 163.208001,117.36 162.92,117.36 C162.631999,117.36 162.352001,117.336 162.08,117.288 C161.807999,117.24 161.528001,117.184 161.24,117.12 C161.079999,117.824004 160.784002,118.911993 160.352,120.384 C159.919998,121.856007 159.424003,123.527991 158.864,125.4 C158.303997,127.272009 157.712003,129.23999 157.088,131.304 C156.463997,133.36801 155.856003,135.335991 155.264,137.208 C154.671997,139.080009 154.144002,140.759993 153.68,142.248 C153.215998,143.736007 152.872001,144.831996 152.648,145.536 L152.552,145.536 C152.263999,144.703996 151.872002,143.552007 151.376,142.08 C150.879998,140.607993 150.328003,138.960009 149.72,137.136 C149.111997,135.311991 148.480003,133.40801 147.824,131.424 C147.167997,129.43999 146.552003,127.528009 145.976,125.688 C145.399997,123.847991 144.880002,122.176008 144.416,120.672 C143.951998,119.167992 143.608001,117.984004 143.384,117.12 C142.743997,117.280001 142.216002,117.36 141.8,117.36 C141.383998,117.36 140.856003,117.280001 140.216,117.12 C140.023999,117.920004 139.704002,119.063993 139.256,120.552 C138.807998,122.040007 138.296003,123.687991 137.72,125.496 C137.143997,127.304009 136.520003,129.19999 135.848,131.184 C135.175997,133.16801 134.536003,135.079991 133.928,136.92 C133.319997,138.760009 132.760003,140.439992 132.248,141.96 C131.735997,143.480008 131.336001,144.671996 131.048,145.536 L130.952,145.536 C129.991995,142.495985 129.136004,139.768012 128.384,137.352 C127.631996,134.935988 126.928003,132.632011 126.272,130.44 C125.615997,128.247989 125.000003,126.088011 124.424,123.96 C123.847997,121.831989 123.256003,119.552012 122.648,117.12 C122.231998,117.184 121.832002,117.24 121.448,117.288 C121.063998,117.336 120.664002,117.36 120.248,117.36 C119.831998,117.36 119.432002,117.336 119.048,117.288 C118.663998,117.24 118.264002,117.184 117.848,117.12 C118.168002,117.952004 118.607997,119.231991 119.168,120.96 C119.728003,122.688009 120.343997,124.631989 121.016,126.792 C121.688003,128.952011 122.391996,131.223988 123.128,133.608 C123.864004,135.992012 124.567997,138.271989 125.24,140.448 C125.912003,142.624011 126.511997,144.575991 127.04,146.304 C127.568003,148.032009 127.959999,149.295996 128.216,150.096 L128.216,150.096 Z M168.924,118.944 C168.924,119.616003 169.163998,120.191998 169.644,120.672 C170.124002,121.152002 170.699997,121.392 171.372,121.392 C172.044003,121.392 172.619998,121.152002 173.1,120.672 C173.580002,120.191998 173.82,119.616003 173.82,118.944 C173.82,118.271997 173.580002,117.696002 173.1,117.216 C172.619998,116.735998 172.044003,116.496 171.372,116.496 C170.699997,116.496 170.124002,116.735998 169.644,117.216 C169.163998,117.696002 168.924,118.271997 168.924,118.944 L168.924,118.944 Z M169.596,136.272 L169.596,141.264 C169.596,142.704007 169.572,144.215992 169.524,145.8 C169.476,147.384008 169.372001,148.815994 169.212,150.096 C169.948004,150.032 170.667996,150 171.372,150 C172.076004,150 172.795996,150.032 173.532,150.096 C173.371999,148.815994 173.268,147.384008 173.22,145.8 C173.172,144.215992 173.148,142.704007 173.148,141.264 L173.148,136.272 C173.148,134.831993 173.172,133.320008 173.22,131.736 C173.268,130.151992 173.371999,128.672007 173.532,127.296 C172.635996,127.456001 171.916003,127.536 171.372,127.536 C170.827997,127.536 170.108004,127.456001 169.212,127.296 C169.372001,128.672007 169.476,130.151992 169.524,131.736 C169.572,133.320008 169.596,134.831993 169.596,136.272 L169.596,136.272 Z M181.792,145.632 L181.216,145.632 C181.216,146.112002 181.112001,146.711996 180.904,147.432 C180.695999,148.152004 180.496001,148.719998 180.304,149.136 C180.976003,149.520002 181.807995,149.855999 182.8,150.144 C183.792005,150.432001 185.023993,150.576 186.496,150.576 C187.840007,150.576 189.039995,150.376002 190.096,149.976 C191.152005,149.575998 192.055996,149.016004 192.808,148.296 C193.560004,147.575996 194.135998,146.768004 194.536,145.872 C194.936002,144.975996 195.136,144.064005 195.136,143.136 C195.136,141.791993 194.856003,140.736004 194.296,139.968 C193.735997,139.199996 193.040004,138.600002 192.208,138.168 C191.375996,137.735998 190.464005,137.400001 189.472,137.16 C188.479995,136.919999 187.568004,136.640002 186.736,136.32 C185.903996,135.999998 185.208003,135.560003 184.648,135 C184.087997,134.439997 183.808,133.648005 183.808,132.624 C183.808,131.919996 183.935999,131.312003 184.192,130.8 C184.448001,130.287997 184.767998,129.872002 185.152,129.552 C185.536002,129.231998 185.967998,128.992001 186.448,128.832 C186.928002,128.671999 187.407998,128.592 187.888,128.592 C188.976005,128.592 189.887996,128.895997 190.624,129.504 C191.360004,130.112003 191.855999,130.799996 192.112,131.568 L192.688,131.568 C192.752,131.183998 192.895999,130.640004 193.12,129.936 C193.344001,129.231996 193.583999,128.640002 193.84,128.16 C193.103996,127.903999 192.328004,127.616002 191.512,127.296 C190.695996,126.975998 189.696006,126.816 188.512,126.816 C187.231994,126.816 186.096005,126.999998 185.104,127.368 C184.111995,127.736002 183.280003,128.239997 182.608,128.88 C181.935997,129.520003 181.424002,130.279996 181.072,131.16 C180.719998,132.040004 180.544,133.007995 180.544,134.064 C180.544,135.408007 180.823997,136.463996 181.384,137.232 C181.944003,138.000004 182.639996,138.615998 183.472,139.08 C184.304004,139.544002 185.215995,139.903999 186.208,140.16 C187.200005,140.416001 188.111996,140.711998 188.944,141.048 C189.776004,141.384002 190.471997,141.815997 191.032,142.344 C191.592003,142.872003 191.872,143.631995 191.872,144.624 C191.872,145.328004 191.744001,145.951997 191.488,146.496 C191.231999,147.040003 190.888002,147.487998 190.456,147.84 C190.023998,148.192002 189.528003,148.463999 188.968,148.656 C188.407997,148.848001 187.824003,148.944 187.216,148.944 C186.543997,148.944 185.912003,148.832001 185.32,148.608 C184.727997,148.383999 184.200002,148.104002 183.736,147.768 C183.271998,147.431998 182.872002,147.072002 182.536,146.688 C182.199998,146.303998 181.952001,145.952002 181.792,145.632 L181.792,145.632 Z M203.636,139.2 C203.636,137.759993 203.771999,136.408006 204.044,135.144 C204.316001,133.879994 204.731997,132.776005 205.292,131.832 C205.852003,130.887995 206.555996,130.152003 207.404,129.624 C208.252004,129.095997 209.251994,128.832 210.404,128.832 C212.708012,128.832 214.451994,129.639992 215.636,131.256 C216.820006,132.872008 217.412,135.215985 217.412,138.288 C217.412,139.568006 217.276001,140.847994 217.004,142.128 C216.731999,143.408006 216.300003,144.551995 215.708,145.56 C215.115997,146.568005 214.372004,147.383997 213.476,148.008 C212.579996,148.632003 211.508006,148.944 210.26,148.944 C209.491996,148.944 208.708004,148.800001 207.908,148.512 C207.107996,148.223999 206.396003,147.704004 205.772,146.952 C205.147997,146.199996 204.636002,145.200006 204.236,143.952 C203.835998,142.703994 203.636,141.12001 203.636,139.2 L203.636,139.2 Z M217.364,145.536 L217.22,150.096 C217.860003,150.032 218.467997,150 219.044,150 C219.652003,150 220.275997,150.032 220.916,150.096 C220.884,148.239991 220.852,146.432009 220.82,144.672 C220.788,142.911991 220.772,140.928011 220.772,138.72 C220.772,136.67199 220.788,134.416012 220.82,131.952 C220.852,129.487988 220.892,127.088012 220.94,124.752 C220.988,122.415988 221.044,120.28001 221.108,118.344 C221.172,116.40799 221.252,114.928005 221.348,113.904 C220.931998,113.968 220.556002,114.024 220.22,114.072 C219.883998,114.12 219.540002,114.144 219.188,114.144 C218.835998,114.144 218.484002,114.12 218.132,114.072 C217.779998,114.024 217.412002,113.968 217.028,113.904 C217.06,114.672004 217.084,115.551995 217.1,116.544 C217.116,117.536005 217.132,118.591994 217.148,119.712 C217.164,120.832006 217.18,122.007994 217.196,123.24 C217.212,124.472006 217.22,125.695994 217.22,126.912 L217.22,131.616 L217.124,131.616 C215.747993,128.415984 213.284018,126.816 209.732,126.816 C208.483994,126.816 207.244006,127.063998 206.012,127.56 C204.779994,128.056002 203.676005,128.807995 202.7,129.816 C201.723995,130.824005 200.932003,132.079992 200.324,133.584 C199.715997,135.088008 199.412,136.86399 199.412,138.912 C199.412,140.99201 199.691997,142.775993 200.252,144.264 C200.812003,145.752007 201.547995,146.967995 202.46,147.912 C203.372005,148.856005 204.411994,149.535998 205.58,149.952 C206.748006,150.368002 207.939994,150.576 209.156,150.576 C210.340006,150.576 211.379996,150.416002 212.276,150.096 C213.172004,149.775998 213.947997,149.360003 214.604,148.848 C215.260003,148.335997 215.803998,147.784003 216.236,147.192 C216.668002,146.599997 217.011999,146.048003 217.268,145.536 L217.364,145.536 Z M230.328,138.768 C230.328,137.423993 230.447999,136.128006 230.688,134.88 C230.928001,133.631994 231.335997,132.520005 231.912,131.544 C232.488003,130.567995 233.255995,129.792003 234.216,129.216 C235.176005,128.639997 236.359993,128.352 237.768,128.352 C239.176007,128.352 240.359995,128.639997 241.32,129.216 C242.280005,129.792003 243.047997,130.567995 243.624,131.544 C244.200003,132.520005 244.607999,133.631994 244.848,134.88 C245.088001,136.128006 245.208,137.423993 245.208,138.768 C245.208,140.112007 245.088001,141.407994 244.848,142.656 C244.607999,143.904006 244.200003,145.015995 243.624,145.992 C243.047997,146.968005 242.280005,147.743997 241.32,148.32 C240.359995,148.896003 239.176007,149.184 237.768,149.184 C236.359993,149.184 235.176005,148.896003 234.216,148.32 C233.255995,147.743997 232.488003,146.968005 231.912,145.992 C231.335997,145.015995 230.928001,143.904006 230.688,142.656 C230.447999,141.407994 230.328,140.112007 230.328,138.768 L230.328,138.768 Z M226.104,138.768 C226.104,140.944011 226.447997,142.791992 227.136,144.312 C227.824003,145.832008 228.727994,147.063995 229.848,148.008 C230.968006,148.952005 232.223993,149.615998 233.616,150 C235.008007,150.384002 236.391993,150.576 237.768,150.576 C239.176007,150.576 240.567993,150.384002 241.944,150 C243.320007,149.615998 244.567994,148.952005 245.688,148.008 C246.808006,147.063995 247.711997,145.832008 248.4,144.312 C249.088003,142.791992 249.432,140.944011 249.432,138.768 C249.432,136.591989 249.088003,134.744008 248.4,133.224 C247.711997,131.703992 246.808006,130.472005 245.688,129.528 C244.567994,128.583995 243.320007,127.896002 241.944,127.464 C240.567993,127.031998 239.176007,126.816 237.768,126.816 C236.391993,126.816 235.008007,127.031998 233.616,127.464 C232.223993,127.896002 230.968006,128.583995 229.848,129.528 C228.727994,130.472005 227.824003,131.703992 227.136,133.224 C226.447997,134.744008 226.104,136.591989 226.104,138.768 L226.104,138.768 Z M255.196,136.272 L255.196,141.264 C255.196,142.704007 255.172,144.215992 255.124,145.8 C255.076,147.384008 254.972001,148.815994 254.812,150.096 C255.548004,150.032 256.267996,150 256.972,150 C257.676004,150 258.395996,150.032 259.132,150.096 C258.971999,148.815994 258.868,147.384008 258.82,145.8 C258.772,144.215992 258.748,142.704007 258.748,141.264 L258.748,137.184 C258.748,134.687988 259.243995,132.752007 260.236,131.376 C261.228005,129.999993 262.779989,129.312 264.892,129.312 C265.692004,129.312 266.467996,129.527998 267.22,129.96 C267.972004,130.392002 268.523998,130.911997 268.876,131.52 C269.068001,131.904002 269.219999,132.255998 269.332,132.576 C269.444001,132.896002 269.532,133.303998 269.596,133.8 C269.66,134.296002 269.7,134.967996 269.716,135.816 C269.732,136.664004 269.74,137.839992 269.74,139.344 C269.74,141.104009 269.708,142.895991 269.644,144.72 C269.58,146.544009 269.468001,148.335991 269.308,150.096 C270.044004,150.032 270.747997,150 271.42,150 C272.092003,150 272.795996,150.032 273.532,150.096 C273.468,148.751993 273.412,147.512006 273.364,146.376 C273.316,145.239994 273.292,143.984007 273.292,142.608 C273.292,140.335989 273.308,138.552006 273.34,137.256 C273.372,135.959994 273.428,134.952004 273.508,134.232 C273.588,133.511996 273.699999,132.976002 273.844,132.624 C273.988001,132.271998 274.187999,131.920002 274.444,131.568 C274.892002,130.959997 275.515996,130.432002 276.316,129.984 C277.116004,129.535998 278.091994,129.312 279.244,129.312 C280.204005,129.312 281.003997,129.463998 281.644,129.768 C282.284003,130.072002 282.795998,130.479997 283.18,130.992 C283.564002,131.504003 283.843999,132.111996 284.02,132.816 C284.196001,133.520004 284.284,134.271996 284.284,135.072 C284.284,139.424022 284.228001,142.815988 284.116,145.248 C284.003999,147.680012 283.9,149.295996 283.804,150.096 C284.156002,150.032 284.507998,150 284.86,150 L285.916,150 L286.924,150 C287.276002,150 287.627998,150.032 287.98,150.096 C287.916,149.167995 287.876,148.304004 287.86,147.504 C287.844,146.703996 287.836,145.872004 287.836,145.008 C287.836,143.599993 287.852,142.360005 287.884,141.288 C287.916,140.215995 287.948,139.256004 287.98,138.408 C288.012,137.559996 288.044,136.816003 288.076,136.176 C288.108,135.535997 288.124,134.944003 288.124,134.4 C288.124,133.055993 287.940002,131.904005 287.572,130.944 C287.203998,129.983995 286.692003,129.200003 286.036,128.592 C285.379997,127.983997 284.604004,127.536001 283.708,127.248 C282.811996,126.959999 281.836005,126.816 280.78,126.816 C279.051991,126.816 277.524007,127.223996 276.196,128.04 C274.867993,128.856004 273.820004,130.031992 273.052,131.568 L272.956,131.568 C272.795999,130.895997 272.492002,130.264003 272.044,129.672 C271.595998,129.079997 271.060003,128.576002 270.436,128.16 C269.811997,127.743998 269.116004,127.416001 268.348,127.176 C267.579996,126.935999 266.796004,126.816 265.996,126.816 C262.923985,126.816 260.540008,128.255986 258.844,131.136 L258.748,131.136 C258.748,129.855994 258.796,128.576006 258.892,127.296 C258.475998,127.36 258.116002,127.416 257.812,127.464 C257.507998,127.512 257.228001,127.536 256.972,127.536 C256.427997,127.536 255.708004,127.456001 254.812,127.296 C254.972001,128.672007 255.076,130.151992 255.124,131.736 C255.172,133.320008 255.196,134.831993 255.196,136.272 L255.196,136.272 Z" id="Wild-Woman-Wisdom"></path>
        </g>
    </g>
</svg>