<?xml version="1.0" encoding="UTF-8" standalone="no"?>
<svg width="514px" height="296px" viewBox="0 0 514 296" version="1.1" xmlns="http://www.w3.org/2000/svg" xmlns:xlink="http://www.w3.org/1999/xlink">
    <!-- Generator: Sketch 39.1 (31720) - http://www.bohemiancoding.com/sketch -->
    <title>Artboard 2</title>
    <desc>Created with Sketch.</desc>
    <defs></defs>
    <g id="Page-1" stroke="none" stroke-width="1" fill="none" fill-rule="evenodd" fill-opacity="0.2">
        <g id="Artboard-2" fill="#FFA8A8">
            <path d="M43.416,123.648 L43.416,131.904 C43.416,134.016011 43.3760004,136.09599 43.296,138.144 C43.2159996,140.19201 43.1280005,142.20799 43.032,144.192 C43.7680037,144.128 44.5519958,144.096 45.384,144.096 C46.2160042,144.096 46.9999963,144.128 47.736,144.192 C47.6399995,142.20799 47.5520004,140.19201 47.472,138.144 C47.3919996,136.09599 47.352,134.016011 47.352,131.904 L47.352,123.648 C47.352,120.319983 47.3999995,117.008016 47.496,113.712 C48.3280042,113.712 49.1999954,113.72 50.112,113.736 C51.0240046,113.752 51.9359954,113.784 52.848,113.832 C53.7600046,113.88 54.6399958,113.936 55.488,114 C56.3360042,114.064 57.0959966,114.144 57.768,114.24 C57.6079992,113.663997 57.528,113.168002 57.528,112.752 C57.528,112.367998 57.6079992,111.856003 57.768,111.216 C55.6559894,111.28 53.5920101,111.336 51.576,111.384 C49.5599899,111.432 47.4960106,111.456 45.384,111.456 C43.2719894,111.456 41.2080101,111.432 39.192,111.384 C37.1759899,111.336 35.1120106,111.28 33,111.216 C33.1600008,111.856003 33.24,112.351998 33.24,112.704 C33.24,113.152002 33.1600008,113.663997 33,114.24 C33.6720034,114.144 34.4319958,114.064 35.28,114 C36.1280042,113.936 37.0079954,113.88 37.92,113.832 C38.8320046,113.784 39.7439954,113.752 40.656,113.736 C41.5680046,113.72 42.4399958,113.712 43.272,113.712 C43.3680005,117.008016 43.416,120.319983 43.416,123.648 L43.416,123.648 Z M60.172,132.864 C60.172,131.519993 60.2919988,130.224006 60.532,128.976 C60.7720012,127.727994 61.1799971,126.616005 61.756,125.64 C62.3320029,124.663995 63.0999952,123.888003 64.06,123.312 C65.0200048,122.735997 66.203993,122.448 67.612,122.448 C69.020007,122.448 70.2039952,122.735997 71.164,123.312 C72.1240048,123.888003 72.8919971,124.663995 73.468,125.64 C74.0440029,126.616005 74.4519988,127.727994 74.692,128.976 C74.9320012,130.224006 75.052,131.519993 75.052,132.864 C75.052,134.208007 74.9320012,135.503994 74.692,136.752 C74.4519988,138.000006 74.0440029,139.111995 73.468,140.088 C72.8919971,141.064005 72.1240048,141.839997 71.164,142.416 C70.2039952,142.992003 69.020007,143.28 67.612,143.28 C66.203993,143.28 65.0200048,142.992003 64.06,142.416 C63.0999952,141.839997 62.3320029,141.064005 61.756,140.088 C61.1799971,139.111995 60.7720012,138.000006 60.532,136.752 C60.2919988,135.503994 60.172,134.208007 60.172,132.864 L60.172,132.864 Z M55.948,132.864 C55.948,135.040011 56.2919966,136.887992 56.98,138.408 C57.6680034,139.928008 58.5719944,141.159995 59.692,142.104 C60.8120056,143.048005 62.067993,143.711998 63.46,144.096 C64.852007,144.480002 66.2359931,144.672 67.612,144.672 C69.020007,144.672 70.4119931,144.480002 71.788,144.096 C73.1640069,143.711998 74.4119944,143.048005 75.532,142.104 C76.6520056,141.159995 77.5559966,139.928008 78.244,138.408 C78.9320034,136.887992 79.276,135.040011 79.276,132.864 C79.276,130.687989 78.9320034,128.840008 78.244,127.32 C77.5559966,125.799992 76.6520056,124.568005 75.532,123.624 C74.4119944,122.679995 73.1640069,121.992002 71.788,121.56 C70.4119931,121.127998 69.020007,120.912 67.612,120.912 C66.2359931,120.912 64.852007,121.127998 63.46,121.56 C62.067993,121.992002 60.8120056,122.679995 59.692,123.624 C58.5719944,124.568005 57.6680034,125.799992 56.98,127.32 C56.2919966,128.840008 55.948,130.687989 55.948,132.864 L55.948,132.864 Z M99.3,144.192 C100.036004,144.128 100.819996,144.096 101.652,144.096 C102.484004,144.096 103.267996,144.128 104.004,144.192 C103.908,142.20799 103.82,140.19201 103.74,138.144 C103.66,136.09599 103.62,134.016011 103.62,131.904 L103.62,127.728 C103.62,127.535999 103.699999,127.44 103.86,127.44 C103.988001,127.44 104.179999,127.567999 104.436,127.824 C104.948003,128.336003 105.739995,129.223994 106.812,130.488 C107.884005,131.752006 109.083993,133.175992 110.412,134.76 C111.740007,136.344008 113.099993,137.983992 114.492,139.68 C115.884007,141.376008 117.155994,142.879993 118.308,144.192 C118.756002,144.128 119.195998,144.096 119.628,144.096 L120.948,144.096 L122.388,144.096 C122.868002,144.096 123.347998,144.128 123.828,144.192 C121.107986,141.151985 118.428013,138.120015 115.788,135.096 C113.147987,132.071985 110.532013,129.104015 107.94,126.192 C108.804004,125.199995 109.883994,124.040007 111.18,122.712 C112.476006,121.383993 113.835993,120.032007 115.26,118.656 C116.684007,117.279993 118.099993,115.936007 119.508,114.624 C120.916007,113.311993 122.179994,112.176005 123.3,111.216 C122.915998,111.28 122.532002,111.336 122.148,111.384 C121.763998,111.432 121.380002,111.456 120.996,111.456 C120.675998,111.456 120.356002,111.432 120.036,111.384 C119.715998,111.336 119.380002,111.28 119.028,111.216 C117.907994,112.496006 116.740006,113.815993 115.524,115.176 C114.307994,116.536007 113.076006,117.871993 111.828,119.184 C110.579994,120.496007 109.340006,121.759994 108.108,122.976 C106.875994,124.192006 105.700006,125.279995 104.58,126.24 C104.259998,126.528001 104.036001,126.672 103.908,126.672 C103.715999,126.672 103.62,126.544001 103.62,126.288 L103.62,123.648 C103.62,121.535989 103.66,119.46401 103.74,117.432 C103.82,115.39999 103.908,113.328011 104.004,111.216 C103.587998,111.28 103.188002,111.336 102.804,111.384 C102.419998,111.432 102.036002,111.456 101.652,111.456 C101.267998,111.456 100.884002,111.432 100.5,111.384 C100.115998,111.336 99.7160021,111.28 99.3,111.216 C99.3960005,113.328011 99.4839996,115.39999 99.564,117.432 C99.6440004,119.46401 99.684,121.535989 99.684,123.648 L99.684,131.904 C99.684,134.016011 99.6440004,136.09599 99.564,138.144 C99.4839996,140.19201 99.3960005,142.20799 99.3,144.192 L99.3,144.192 Z M143.944,130.704 L143.944,133.632 C143.944,135.488009 143.904,137.295991 143.824,139.056 C143.744,140.816009 143.672,142.527992 143.608,144.192 C144.248003,144.128 144.903997,144.096 145.576,144.096 C146.280004,144.096 146.951997,144.128 147.592,144.192 C147.56,143.743998 147.536,143.272002 147.52,142.776 C147.504,142.279998 147.496,141.776003 147.496,141.264 L147.496,138.144 C147.496,136.511992 147.528,134.968007 147.592,133.512 C147.656,132.055993 147.688,130.640007 147.688,129.264 C147.688,127.599992 147.456002,126.232005 146.992,125.16 C146.527998,124.087995 145.928004,123.240003 145.192,122.616 C144.455996,121.991997 143.632005,121.552001 142.72,121.296 C141.807995,121.039999 140.904004,120.912 140.008,120.912 C138.279991,120.912 136.792006,121.287996 135.544,122.04 C134.295994,122.792004 133.224004,123.855993 132.328,125.232 L132.232,125.232 C132.232,123.951994 132.28,122.672006 132.376,121.392 C131.959998,121.456 131.600002,121.512 131.296,121.56 C130.991998,121.608 130.712001,121.632 130.456,121.632 C129.911997,121.632 129.192004,121.552001 128.296,121.392 C128.456001,122.768007 128.56,124.247992 128.608,125.832 C128.656,127.416008 128.68,128.927993 128.68,130.368 L128.68,135.36 C128.68,136.800007 128.656,138.311992 128.608,139.896 C128.56,141.480008 128.456001,142.911994 128.296,144.192 C129.032004,144.128 129.751996,144.096 130.456,144.096 C131.160004,144.096 131.879996,144.128 132.616,144.192 C132.455999,142.911994 132.352,141.480008 132.304,139.896 C132.256,138.311992 132.232,136.800007 132.232,135.36 L132.232,131.28 C132.232,128.783988 132.751995,126.848007 133.792,125.472 C134.832005,124.095993 136.471989,123.408 138.712,123.408 C140.344008,123.408 141.623995,124.023994 142.552,125.256 C143.480005,126.488006 143.944,128.303988 143.944,130.704 L143.944,130.704 Z M157.58,132.864 C157.58,131.519993 157.699999,130.224006 157.94,128.976 C158.180001,127.727994 158.587997,126.616005 159.164,125.64 C159.740003,124.663995 160.507995,123.888003 161.468,123.312 C162.428005,122.735997 163.611993,122.448 165.02,122.448 C166.428007,122.448 167.611995,122.735997 168.572,123.312 C169.532005,123.888003 170.299997,124.663995 170.876,125.64 C171.452003,126.616005 171.859999,127.727994 172.1,128.976 C172.340001,130.224006 172.46,131.519993 172.46,132.864 C172.46,134.208007 172.340001,135.503994 172.1,136.752 C171.859999,138.000006 171.452003,139.111995 170.876,140.088 C170.299997,141.064005 169.532005,141.839997 168.572,142.416 C167.611995,142.992003 166.428007,143.28 165.02,143.28 C163.611993,143.28 162.428005,142.992003 161.468,142.416 C160.507995,141.839997 159.740003,141.064005 159.164,140.088 C158.587997,139.111995 158.180001,138.000006 157.94,136.752 C157.699999,135.503994 157.58,134.208007 157.58,132.864 L157.58,132.864 Z M153.356,132.864 C153.356,135.040011 153.699997,136.887992 154.388,138.408 C155.076003,139.928008 155.979994,141.159995 157.1,142.104 C158.220006,143.048005 159.475993,143.711998 160.868,144.096 C162.260007,144.480002 163.643993,144.672 165.02,144.672 C166.428007,144.672 167.819993,144.480002 169.196,144.096 C170.572007,143.711998 171.819994,143.048005 172.94,142.104 C174.060006,141.159995 174.963997,139.928008 175.652,138.408 C176.340003,136.887992 176.684,135.040011 176.684,132.864 C176.684,130.687989 176.340003,128.840008 175.652,127.32 C174.963997,125.799992 174.060006,124.568005 172.94,123.624 C171.819994,122.679995 170.572007,121.992002 169.196,121.56 C167.819993,121.127998 166.428007,120.912 165.02,120.912 C163.643993,120.912 162.260007,121.127998 160.868,121.56 C159.475993,121.992002 158.220006,122.679995 157.1,123.624 C155.979994,124.568005 155.076003,125.799992 154.388,127.32 C153.699997,128.840008 153.356,130.687989 153.356,132.864 L153.356,132.864 Z M187.392,144.192 C187.776002,144.128 188.223997,144.096 188.736,144.096 C189.248003,144.096 189.695998,144.128 190.08,144.192 C190.528002,142.847993 191.039997,141.336008 191.616,139.656 C192.192003,137.975992 192.767997,136.320008 193.344,134.688 C193.920003,133.055992 194.479997,131.528007 195.024,130.104 C195.568003,128.679993 196.031998,127.488005 196.416,126.528 C197.696006,129.696016 198.831995,132.719986 199.824,135.6 C200.816005,138.480014 201.727996,141.343986 202.56,144.192 C202.720001,144.128 202.911999,144.096 203.136,144.096 L203.808,144.096 C204.288002,144.096 204.703998,144.128 205.056,144.192 C206.432007,140.415981 207.911992,136.640019 209.496,132.864 C211.080008,129.087981 212.783991,125.264019 214.608,121.392 C214.063997,121.552001 213.584002,121.632 213.168,121.632 C212.783998,121.632 212.272003,121.552001 211.632,121.392 C211.087997,122.896008 210.504003,124.511991 209.88,126.24 C209.255997,127.968009 208.640003,129.655992 208.032,131.304 C207.423997,132.952008 206.840003,134.519993 206.28,136.008 C205.719997,137.496007 205.232002,138.751995 204.816,139.776 C203.663994,136.575984 202.560005,133.480015 201.504,130.488 C200.447995,127.495985 199.520004,124.464015 198.72,121.392 C198.463999,121.456 198.240001,121.512 198.048,121.56 C197.855999,121.608 197.632001,121.632 197.376,121.632 C196.991998,121.632 196.512003,121.552001 195.936,121.392 C195.487998,122.896008 194.976003,124.527991 194.4,126.288 C193.823997,128.048009 193.248003,129.775992 192.672,131.472 C192.095997,133.168008 191.536003,134.751993 190.992,136.224 C190.447997,137.696007 189.984002,138.879996 189.6,139.776 C188.351994,136.575984 187.224005,133.464015 186.216,130.44 C185.207995,127.415985 184.288004,124.400015 183.456,121.392 C183.039998,121.456 182.656002,121.512 182.304,121.56 C181.951998,121.608 181.600002,121.632 181.248,121.632 C180.863998,121.632 180.488002,121.608 180.12,121.56 C179.751998,121.512 179.376002,121.456 178.992,121.392 C179.792004,123.31201 180.599996,125.351989 181.416,127.512 C182.232004,129.672011 183.015996,131.78399 183.768,133.848 C184.520004,135.91201 185.215997,137.855991 185.856,139.68 C186.496003,141.504009 187.007998,143.007994 187.392,144.192 L187.392,144.192 Z M231.512,127.776 C231.512,130.496014 231.951996,132.919989 232.832,135.048 C233.712004,137.176011 234.943992,138.975993 236.528,140.448 C238.112008,141.920007 240.007989,143.015996 242.216,143.736 C244.424011,144.456004 246.839987,144.816 249.464,144.816 C252.120013,144.816 254.551989,144.456004 256.76,143.736 C258.968011,143.015996 260.863992,141.920007 262.448,140.448 C264.032008,138.975993 265.263996,137.176011 266.144,135.048 C267.024004,132.919989 267.464,130.496014 267.464,127.776 C267.464,125.055986 267.024004,122.632011 266.144,120.504 C265.263996,118.375989 264.032008,116.576007 262.448,115.104 C260.863992,113.631993 258.968011,112.512004 256.76,111.744 C254.551989,110.975996 252.120013,110.592 249.464,110.592 C246.839987,110.592 244.424011,110.975996 242.216,111.744 C240.007989,112.512004 238.112008,113.631993 236.528,115.104 C234.943992,116.576007 233.712004,118.375989 232.832,120.504 C231.951996,122.632011 231.512,125.055986 231.512,127.776 L231.512,127.776 Z M262.76,127.776 C262.76,130.432013 262.424003,132.72799 261.752,134.664 C261.079997,136.60001 260.144006,138.199994 258.944,139.464 C257.743994,140.728006 256.336008,141.663997 254.72,142.272 C253.103992,142.880003 251.352009,143.184 249.464,143.184 C247.607991,143.184 245.872008,142.880003 244.256,142.272 C242.639992,141.663997 241.232006,140.728006 240.032,139.464 C238.831994,138.199994 237.896003,136.60001 237.224,134.664 C236.551997,132.72799 236.216,130.432013 236.216,127.776 C236.216,125.119987 236.551997,122.82401 237.224,120.888 C237.896003,118.95199 238.831994,117.352006 240.032,116.088 C241.232006,114.823994 242.639992,113.888003 244.256,113.28 C245.872008,112.671997 247.607991,112.368 249.464,112.368 C251.352009,112.368 253.103992,112.671997 254.72,113.28 C256.336008,113.888003 257.743994,114.823994 258.944,116.088 C260.144006,117.352006 261.079997,118.95199 261.752,120.888 C262.424003,122.82401 262.76,125.119987 262.76,127.776 L262.76,127.776 Z M273.468,136.944 C273.468,139.440012 274.179993,141.351993 275.604,142.68 C277.028007,144.008007 278.987988,144.672 281.484,144.672 C283.020008,144.672 284.443993,144.312004 285.756,143.592 C287.068007,142.871996 288.139996,141.744008 288.972,140.208 L289.068,140.208 L289.068,142.272 C289.068,142.624002 289.06,142.959998 289.044,143.28 C289.028,143.600002 289.004,143.903999 288.972,144.192 C289.612003,144.128 290.235997,144.096 290.844,144.096 C291.452003,144.096 292.075997,144.128 292.716,144.192 C292.652,142.911994 292.604,141.584007 292.572,140.208 C292.54,138.831993 292.524,137.424007 292.524,135.984 C292.524,133.391987 292.54,130.936012 292.572,128.616 C292.604,126.295988 292.699999,123.888012 292.86,121.392 C292.539998,121.456 292.220002,121.512 291.9,121.56 C291.579998,121.608 291.244002,121.632 290.892,121.632 C290.539998,121.632 290.204002,121.608 289.884,121.56 C289.563998,121.512 289.228002,121.456 288.876,121.392 C288.908,121.968003 288.932,122.575997 288.948,123.216 C288.964,123.856003 288.972,124.527996 288.972,125.232 L288.972,129.264 C288.972,131.152009 288.964,132.639995 288.948,133.728 C288.932,134.816005 288.884,135.679997 288.804,136.32 C288.724,136.960003 288.620001,137.471998 288.492,137.856 C288.363999,138.240002 288.188001,138.703997 287.964,139.248 C287.547998,140.112004 286.892005,140.839997 285.996,141.432 C285.099996,142.024003 283.980007,142.32 282.636,142.32 C281.707995,142.32 280.900003,142.152002 280.212,141.816 C279.523997,141.479998 278.956002,141.056003 278.508,140.544 C278.091998,140.095998 277.740001,139.432004 277.452,138.552 C277.163999,137.671996 277.02,136.400008 277.02,134.736 C277.02,132.335988 277.06,129.992011 277.14,127.704 C277.22,125.415989 277.339999,123.31201 277.5,121.392 C276.699996,121.552001 276.044003,121.632 275.532,121.632 C274.987997,121.632 274.316004,121.552001 273.516,121.392 C273.548,122.736007 273.572,124.063993 273.588,125.376 C273.604,126.688007 273.612,127.903994 273.612,129.024 C273.612,130.208006 273.588,131.399994 273.54,132.6 C273.492,133.800006 273.468,135.247992 273.468,136.944 L273.468,136.944 Z M311.488,125.328 L311.824,125.088 C311.824,124.447997 311.84,123.736004 311.872,122.952 C311.904,122.167996 311.999999,121.584002 312.16,121.2 C311.839998,121.071999 311.576001,120.992 311.368,120.96 C311.159999,120.928 310.912001,120.912 310.624,120.912 C308.287988,120.912 306.176009,122.639983 304.288,126.096 L304.192,126.048 C304.192,125.439997 304.2,124.800003 304.216,124.128 C304.232,123.455997 304.303999,122.544006 304.432,121.392 C304.079998,121.456 303.744002,121.512 303.424,121.56 C303.103998,121.608 302.800001,121.632 302.512,121.632 C302.159998,121.632 301.824002,121.608 301.504,121.56 C301.183998,121.512 300.848002,121.456 300.496,121.392 C300.592001,123.504011 300.648,125.375992 300.664,127.008 C300.68,128.640008 300.688,130.079994 300.688,131.328 L300.688,132.864 C300.688,135.584014 300.68,137.879991 300.664,139.752 C300.648,141.624009 300.592001,143.103995 300.496,144.192 C301.136003,144.128 301.807997,144.096 302.512,144.096 C303.152003,144.096 303.791997,144.128 304.432,144.192 C304.336,143.487996 304.28,142.568006 304.264,141.432 C304.248,140.295994 304.24,138.656011 304.24,136.512 L304.24,131.232 C304.24,130.303995 304.351999,129.432004 304.576,128.616 C304.800001,127.799996 305.119998,127.096003 305.536,126.504 C305.952002,125.911997 306.463997,125.440002 307.072,125.088 C307.680003,124.735998 308.367996,124.56 309.136,124.56 C309.616002,124.56 310.087998,124.639999 310.552,124.8 C311.016002,124.960001 311.327999,125.135999 311.488,125.328 L311.488,125.328 Z M316.58,139.728 L316.004,139.728 C316.004,140.208002 315.900001,140.807996 315.692,141.528 C315.483999,142.248004 315.284001,142.815998 315.092,143.232 C315.764003,143.616002 316.595995,143.951999 317.588,144.24 C318.580005,144.528001 319.811993,144.672 321.284,144.672 C322.628007,144.672 323.827995,144.472002 324.884,144.072 C325.940005,143.671998 326.843996,143.112004 327.596,142.392 C328.348004,141.671996 328.923998,140.864004 329.324,139.968 C329.724002,139.071996 329.924,138.160005 329.924,137.232 C329.924,135.887993 329.644003,134.832004 329.084,134.064 C328.523997,133.295996 327.828004,132.696002 326.996,132.264 C326.163996,131.831998 325.252005,131.496001 324.26,131.256 C323.267995,131.015999 322.356004,130.736002 321.524,130.416 C320.691996,130.095998 319.996003,129.656003 319.436,129.096 C318.875997,128.535997 318.596,127.744005 318.596,126.72 C318.596,126.015996 318.723999,125.408003 318.98,124.896 C319.236001,124.383997 319.555998,123.968002 319.94,123.648 C320.324002,123.327998 320.755998,123.088001 321.236,122.928 C321.716002,122.767999 322.195998,122.688 322.676,122.688 C323.764005,122.688 324.675996,122.991997 325.412,123.6 C326.148004,124.208003 326.643999,124.895996 326.9,125.664 L327.476,125.664 C327.54,125.279998 327.683999,124.736004 327.908,124.032 C328.132001,123.327996 328.371999,122.736002 328.628,122.256 C327.891996,121.999999 327.116004,121.712002 326.3,121.392 C325.483996,121.071998 324.484006,120.912 323.3,120.912 C322.019994,120.912 320.884005,121.095998 319.892,121.464 C318.899995,121.832002 318.068003,122.335997 317.396,122.976 C316.723997,123.616003 316.212002,124.375996 315.86,125.256 C315.507998,126.136004 315.332,127.103995 315.332,128.16 C315.332,129.504007 315.611997,130.559996 316.172,131.328 C316.732003,132.096004 317.427996,132.711998 318.26,133.176 C319.092004,133.640002 320.003995,133.999999 320.996,134.256 C321.988005,134.512001 322.899996,134.807998 323.732,135.144 C324.564004,135.480002 325.259997,135.911997 325.82,136.44 C326.380003,136.968003 326.66,137.727995 326.66,138.72 C326.66,139.424004 326.532001,140.047997 326.276,140.592 C326.019999,141.136003 325.676002,141.583998 325.244,141.936 C324.811998,142.288002 324.316003,142.559999 323.756,142.752 C323.195997,142.944001 322.612003,143.04 322.004,143.04 C321.331997,143.04 320.700003,142.928001 320.108,142.704 C319.515997,142.479999 318.988002,142.200002 318.524,141.864 C318.059998,141.527998 317.660002,141.168002 317.324,140.784 C316.987998,140.399998 316.740001,140.048002 316.58,139.728 L316.58,139.728 Z M344.952,122.448 C346.200006,122.448 347.207996,122.719997 347.976,123.264 C348.744004,123.808003 349.343998,124.495996 349.776,125.328 C350.208002,126.160004 350.495999,127.055995 350.64,128.016 C350.784001,128.976005 350.856,129.887996 350.856,130.752 C349.831995,130.784 348.776005,130.816 347.688,130.848 C346.599995,130.88 345.528005,130.896 344.472,130.896 C343.447995,130.896 342.400005,130.88 341.328,130.848 C340.255995,130.816 339.224005,130.784 338.232,130.752 C338.296,129.887996 338.463999,128.968005 338.736,127.992 C339.008001,127.015995 339.407997,126.120004 339.936,125.304 C340.464003,124.487996 341.135996,123.808003 341.952,123.264 C342.768004,122.719997 343.767994,122.448 344.952,122.448 L344.952,122.448 Z M333.864,133.536 C333.864,135.136008 334.143997,136.623993 334.704,138 C335.264003,139.376007 336.063995,140.567995 337.104,141.576 C338.144005,142.584005 339.375993,143.351997 340.8,143.88 C342.224007,144.408003 343.799991,144.672 345.528,144.672 C347.064008,144.672 348.543993,144.400003 349.968,143.856 C351.392007,143.311997 352.583995,142.656004 353.544,141.888 L353.832,139.536 L353.592,139.392 C353.175998,139.872002 352.688003,140.319998 352.128,140.736 C351.567997,141.152002 350.968003,141.511998 350.328,141.816 C349.687997,142.120002 349.032003,142.359999 348.36,142.536 C347.687997,142.712001 347.032003,142.8 346.392,142.8 C345.047993,142.8 343.864005,142.568002 342.84,142.104 C341.815995,141.639998 340.952004,141.016004 340.248,140.232 C339.543997,139.447996 339.008002,138.512005 338.64,137.424 C338.271998,136.335995 338.088,135.168006 338.088,133.92 L338.088,133.296 C338.088,132.975998 338.104,132.736001 338.136,132.576 C339.192005,132.544 340.239995,132.512 341.28,132.48 C342.320005,132.448 343.367995,132.432 344.424,132.432 C346.152009,132.432 347.863992,132.448 349.56,132.48 C351.256009,132.512 352.967991,132.544 354.696,132.576 C354.728,132.255998 354.752,131.944002 354.768,131.64 C354.784,131.335998 354.792,131.024002 354.792,130.704 C354.792,129.359993 354.592002,128.096006 354.192,126.912 C353.791998,125.727994 353.176004,124.696004 352.344,123.816 C351.511996,122.935996 350.480006,122.232003 349.248,121.704 C348.015994,121.175997 346.552009,120.912 344.856,120.912 C341.271982,120.912 338.544009,122.031989 336.672,124.272 C334.799991,126.512011 333.864,129.59998 333.864,133.536 L333.864,133.536 Z M361.42,121.824 L361.42,130.512 C361.42,131.600005 361.412,132.783994 361.396,134.064 C361.38,135.344006 361.356,136.607994 361.324,137.856 C361.292,139.104006 361.252,140.287994 361.204,141.408 C361.156,142.528006 361.1,143.455996 361.036,144.192 C361.772004,144.128 362.491997,144.096 363.196,144.096 C363.900004,144.096 364.619996,144.128 365.356,144.192 C365.292,143.455996 365.236,142.528006 365.188,141.408 C365.14,140.287994 365.1,139.104006 365.068,137.856 C365.036,136.607994 365.012,135.344006 364.996,134.064 C364.98,132.783994 364.972,131.600005 364.972,130.512 L364.972,121.824 C364.972,120.735995 364.98,119.552006 364.996,118.272 C365.012,116.991994 365.036,115.728006 365.068,114.48 C365.1,113.231994 365.14,112.040006 365.188,110.904 C365.236,109.767994 365.292,108.800004 365.356,108 C364.459996,108.160001 363.740003,108.24 363.196,108.24 C362.651997,108.24 361.932005,108.160001 361.036,108 C361.1,108.800004 361.156,109.767994 361.204,110.904 C361.252,112.040006 361.292,113.231994 361.324,114.48 C361.356,115.728006 361.38,116.991994 361.396,118.272 C361.412,119.552006 361.42,120.735995 361.42,121.824 L361.42,121.824 Z M380.528,144.192 C381.040003,144.128 381.551997,144.096 382.064,144.096 C382.576003,144.096 383.071998,144.128 383.552,144.192 C384.928007,140.415981 386.447992,136.640019 388.112,132.864 C389.776008,129.087981 391.471991,125.264019 393.2,121.392 C392.623997,121.552001 392.128002,121.632 391.712,121.632 C391.295998,121.632 390.800003,121.552001 390.224,121.392 C389.647997,122.960008 389.064003,124.567992 388.472,126.216 C387.879997,127.864008 387.272003,129.503992 386.648,131.136 C386.023997,132.768008 385.400003,134.343992 384.776,135.864 C384.151997,137.384008 383.520003,138.799993 382.88,140.112 C381.439993,136.911984 380.136006,133.784015 378.968,130.728 C377.799994,127.671985 376.720005,124.560016 375.728,121.392 C375.375998,121.456 375.024002,121.512 374.672,121.56 C374.319998,121.608 373.968002,121.632 373.616,121.632 C373.199998,121.632 372.800002,121.608 372.416,121.56 C372.031998,121.512 371.632002,121.456 371.216,121.392 C372.976009,125.264019 374.599993,129.087981 376.088,132.864 C377.576007,136.640019 379.055993,140.415981 380.528,144.192 L380.528,144.192 Z M406.74,122.448 C407.988006,122.448 408.995996,122.719997 409.764,123.264 C410.532004,123.808003 411.131998,124.495996 411.564,125.328 C411.996002,126.160004 412.283999,127.055995 412.428,128.016 C412.572001,128.976005 412.644,129.887996 412.644,130.752 C411.619995,130.784 410.564005,130.816 409.476,130.848 C408.387995,130.88 407.316005,130.896 406.26,130.896 C405.235995,130.896 404.188005,130.88 403.116,130.848 C402.043995,130.816 401.012005,130.784 400.02,130.752 C400.084,129.887996 400.251999,128.968005 400.524,127.992 C400.796001,127.015995 401.195997,126.120004 401.724,125.304 C402.252003,124.487996 402.923996,123.808003 403.74,123.264 C404.556004,122.719997 405.555994,122.448 406.74,122.448 L406.74,122.448 Z M395.652,133.536 C395.652,135.136008 395.931997,136.623993 396.492,138 C397.052003,139.376007 397.851995,140.567995 398.892,141.576 C399.932005,142.584005 401.163993,143.351997 402.588,143.88 C404.012007,144.408003 405.587991,144.672 407.316,144.672 C408.852008,144.672 410.331993,144.400003 411.756,143.856 C413.180007,143.311997 414.371995,142.656004 415.332,141.888 L415.62,139.536 L415.38,139.392 C414.963998,139.872002 414.476003,140.319998 413.916,140.736 C413.355997,141.152002 412.756003,141.511998 412.116,141.816 C411.475997,142.120002 410.820003,142.359999 410.148,142.536 C409.475997,142.712001 408.820003,142.8 408.18,142.8 C406.835993,142.8 405.652005,142.568002 404.628,142.104 C403.603995,141.639998 402.740004,141.016004 402.036,140.232 C401.331997,139.447996 400.796002,138.512005 400.428,137.424 C400.059998,136.335995 399.876,135.168006 399.876,133.92 L399.876,133.296 C399.876,132.975998 399.892,132.736001 399.924,132.576 C400.980005,132.544 402.027995,132.512 403.068,132.48 C404.108005,132.448 405.155995,132.432 406.212,132.432 C407.940009,132.432 409.651992,132.448 411.348,132.48 C413.044009,132.512 414.755991,132.544 416.484,132.576 C416.516,132.255998 416.54,131.944002 416.556,131.64 C416.572,131.335998 416.58,131.024002 416.58,130.704 C416.58,129.359993 416.380002,128.096006 415.98,126.912 C415.579998,125.727994 414.964004,124.696004 414.132,123.816 C413.299996,122.935996 412.268006,122.232003 411.036,121.704 C409.803994,121.175997 408.340009,120.912 406.644,120.912 C403.059982,120.912 400.332009,122.031989 398.46,124.272 C396.587991,126.512011 395.652,129.59998 395.652,133.536 L395.652,133.536 Z M421.72,139.728 L421.144,139.728 C421.144,140.208002 421.040001,140.807996 420.832,141.528 C420.623999,142.248004 420.424001,142.815998 420.232,143.232 C420.904003,143.616002 421.735995,143.951999 422.728,144.24 C423.720005,144.528001 424.951993,144.672 426.424,144.672 C427.768007,144.672 428.967995,144.472002 430.024,144.072 C431.080005,143.671998 431.983996,143.112004 432.736,142.392 C433.488004,141.671996 434.063998,140.864004 434.464,139.968 C434.864002,139.071996 435.064,138.160005 435.064,137.232 C435.064,135.887993 434.784003,134.832004 434.224,134.064 C433.663997,133.295996 432.968004,132.696002 432.136,132.264 C431.303996,131.831998 430.392005,131.496001 429.4,131.256 C428.407995,131.015999 427.496004,130.736002 426.664,130.416 C425.831996,130.095998 425.136003,129.656003 424.576,129.096 C424.015997,128.535997 423.736,127.744005 423.736,126.72 C423.736,126.015996 423.863999,125.408003 424.12,124.896 C424.376001,124.383997 424.695998,123.968002 425.08,123.648 C425.464002,123.327998 425.895998,123.088001 426.376,122.928 C426.856002,122.767999 427.335998,122.688 427.816,122.688 C428.904005,122.688 429.815996,122.991997 430.552,123.6 C431.288004,124.208003 431.783999,124.895996 432.04,125.664 L432.616,125.664 C432.68,125.279998 432.823999,124.736004 433.048,124.032 C433.272001,123.327996 433.511999,122.736002 433.768,122.256 C433.031996,121.999999 432.256004,121.712002 431.44,121.392 C430.623996,121.071998 429.624006,120.912 428.44,120.912 C427.159994,120.912 426.024005,121.095998 425.032,121.464 C424.039995,121.832002 423.208003,122.335997 422.536,122.976 C421.863997,123.616003 421.352002,124.375996 421,125.256 C420.647998,126.136004 420.472,127.103995 420.472,128.16 C420.472,129.504007 420.751997,130.559996 421.312,131.328 C421.872003,132.096004 422.567996,132.711998 423.4,133.176 C424.232004,133.640002 425.143995,133.999999 426.136,134.256 C427.128005,134.512001 428.039996,134.807998 428.872,135.144 C429.704004,135.480002 430.399997,135.911997 430.96,136.44 C431.520003,136.968003 431.8,137.727995 431.8,138.72 C431.8,139.424004 431.672001,140.047997 431.416,140.592 C431.159999,141.136003 430.816002,141.583998 430.384,141.936 C429.951998,142.288002 429.456003,142.559999 428.896,142.752 C428.335997,142.944001 427.752003,143.04 427.144,143.04 C426.471997,143.04 425.840003,142.928001 425.248,142.704 C424.655997,142.479999 424.128002,142.200002 423.664,141.864 C423.199998,141.527998 422.800002,141.168002 422.464,140.784 C422.127998,140.399998 421.880001,140.048002 421.72,139.728 L421.72,139.728 Z M455.232,113.04 C455.232,113.712003 455.471998,114.287998 455.952,114.768 C456.432002,115.248002 457.007997,115.488 457.68,115.488 C458.352003,115.488 458.927998,115.248002 459.408,114.768 C459.888002,114.287998 460.128,113.712003 460.128,113.04 C460.128,112.367997 459.888002,111.792002 459.408,111.312 C458.927998,110.831998 458.352003,110.592 457.68,110.592 C457.007997,110.592 456.432002,110.831998 455.952,111.312 C455.471998,111.792002 455.232,112.367997 455.232,113.04 L455.232,113.04 Z M455.904,130.368 L455.904,135.36 C455.904,136.800007 455.88,138.311992 455.832,139.896 C455.784,141.480008 455.680001,142.911994 455.52,144.192 C456.256004,144.128 456.975997,144.096 457.68,144.096 C458.384004,144.096 459.103996,144.128 459.84,144.192 C459.679999,142.911994 459.576,141.480008 459.528,139.896 C459.48,138.311992 459.456,136.800007 459.456,135.36 L459.456,130.368 C459.456,128.927993 459.48,127.416008 459.528,125.832 C459.576,124.247992 459.679999,122.768007 459.84,121.392 C458.943996,121.552001 458.224003,121.632 457.68,121.632 C457.135997,121.632 456.416005,121.552001 455.52,121.392 C455.680001,122.768007 455.784,124.247992 455.832,125.832 C455.88,127.416008 455.904,128.927993 455.904,130.368 L455.904,130.368 Z M468.1,139.728 L467.524,139.728 C467.524,140.208002 467.420001,140.807996 467.212,141.528 C467.003999,142.248004 466.804001,142.815998 466.612,143.232 C467.284003,143.616002 468.115995,143.951999 469.108,144.24 C470.100005,144.528001 471.331993,144.672 472.804,144.672 C474.148007,144.672 475.347995,144.472002 476.404,144.072 C477.460005,143.671998 478.363996,143.112004 479.116,142.392 C479.868004,141.671996 480.443998,140.864004 480.844,139.968 C481.244002,139.071996 481.444,138.160005 481.444,137.232 C481.444,135.887993 481.164003,134.832004 480.604,134.064 C480.043997,133.295996 479.348004,132.696002 478.516,132.264 C477.683996,131.831998 476.772005,131.496001 475.78,131.256 C474.787995,131.015999 473.876004,130.736002 473.044,130.416 C472.211996,130.095998 471.516003,129.656003 470.956,129.096 C470.395997,128.535997 470.116,127.744005 470.116,126.72 C470.116,126.015996 470.243999,125.408003 470.5,124.896 C470.756001,124.383997 471.075998,123.968002 471.46,123.648 C471.844002,123.327998 472.275998,123.088001 472.756,122.928 C473.236002,122.767999 473.715998,122.688 474.196,122.688 C475.284006,122.688 476.195996,122.991997 476.932,123.6 C477.668004,124.208003 478.163999,124.895996 478.42,125.664 L478.996,125.664 C479.06,125.279998 479.203999,124.736004 479.428,124.032 C479.652001,123.327996 479.891999,122.736002 480.148,122.256 C479.411996,121.999999 478.636004,121.712002 477.82,121.392 C477.003996,121.071998 476.004006,120.912 474.82,120.912 C473.539994,120.912 472.404005,121.095998 471.412,121.464 C470.419995,121.832002 469.588003,122.335997 468.916,122.976 C468.243997,123.616003 467.732002,124.375996 467.38,125.256 C467.027998,126.136004 466.852,127.103995 466.852,128.16 C466.852,129.504007 467.131997,130.559996 467.692,131.328 C468.252003,132.096004 468.947996,132.711998 469.78,133.176 C470.612004,133.640002 471.523995,133.999999 472.516,134.256 C473.508005,134.512001 474.419996,134.807998 475.252,135.144 C476.084004,135.480002 476.779997,135.911997 477.34,136.44 C477.900003,136.968003 478.18,137.727995 478.18,138.72 C478.18,139.424004 478.052001,140.047997 477.796,140.592 C477.539999,141.136003 477.196002,141.583998 476.764,141.936 C476.331998,142.288002 475.836003,142.559999 475.276,142.752 C474.715997,142.944001 474.132003,143.04 473.524,143.04 C472.851997,143.04 472.220003,142.928001 471.628,142.704 C471.035997,142.479999 470.508002,142.200002 470.044,141.864 C469.579998,141.527998 469.180002,141.168002 468.844,140.784 C468.507998,140.399998 468.260001,140.048002 468.1,139.728 L468.1,139.728 Z M64.326,152.96 L60.342,154.64 C60.4060003,155.664005 60.4459999,156.655995 60.462,157.616 C60.4780001,158.576005 60.5019998,159.375997 60.534,160.016 C59.8619966,160.016 58.8060072,159.968 57.366,159.872 C57.3980002,160.032001 57.4219999,160.191999 57.438,160.352 C57.4540001,160.512001 57.462,160.671999 57.462,160.832 C57.462,161.024001 57.4540001,161.207999 57.438,161.384 C57.4219999,161.560001 57.3980002,161.743999 57.366,161.936 C57.6860016,161.904 57.9899986,161.88 58.278,161.864 C58.5660014,161.848 58.8379987,161.84 59.094,161.84 L60.63,161.84 C60.63,163.632009 60.6140002,165.255993 60.582,166.712 C60.5499998,168.168007 60.5100002,169.495994 60.462,170.696 C60.4139998,171.896006 60.3740002,172.999995 60.342,174.008 C60.3099998,175.016005 60.294,175.951996 60.294,176.816 C60.294,178.73601 60.7739952,180.191995 61.734,181.184 C62.6940048,182.176005 64.1819899,182.672 66.198,182.672 C66.806003,182.672 67.4379967,182.600001 68.094,182.456 C68.7500033,182.311999 69.3499973,182.192 69.894,182.096 L69.894,180.944 C69.5739984,181.04 69.1980022,181.12 68.766,181.184 C68.3339978,181.248 67.9900013,181.28 67.734,181.28 C66.7739952,181.28 66.0380026,181.072002 65.526,180.656 C65.0139974,180.239998 64.6300013,179.688003 64.374,179 C64.1179987,178.311997 63.9660002,177.536004 63.918,176.672 C63.8699998,175.807996 63.846,174.928004 63.846,174.032 C63.846,172.975995 63.8539999,171.776007 63.87,170.432 C63.8860001,169.087993 63.9099998,167.800006 63.942,166.568 C63.9740002,165.335994 64.0139998,164.272004 64.062,163.376 C64.1100002,162.479996 64.1499998,161.968001 64.182,161.84 L66.534,161.84 C67.0460026,161.84 67.5259978,161.848 67.974,161.864 C68.4220022,161.88 68.8539979,161.904 69.27,161.936 C69.2379998,161.84 69.222,161.680001 69.222,161.456 L69.222,160.928 L69.222,160.448 C69.222,160.191999 69.2379998,160.016 69.27,159.92 C68.1499944,159.984 67.1100048,160.024 66.15,160.04 C65.1899952,160.056 64.5340018,160.064 64.182,160.064 C64.2460003,158.879994 64.3019998,157.704006 64.35,156.536 C64.3980002,155.367994 64.4699995,154.176006 64.566,152.96 L64.326,152.96 Z M76.138,170.864 C76.138,169.519993 76.2579988,168.224006 76.498,166.976 C76.7380012,165.727994 77.1459971,164.616005 77.722,163.64 C78.2980029,162.663995 79.0659952,161.888003 80.026,161.312 C80.9860048,160.735997 82.169993,160.448 83.578,160.448 C84.986007,160.448 86.1699952,160.735997 87.13,161.312 C88.0900048,161.888003 88.8579971,162.663995 89.434,163.64 C90.0100029,164.616005 90.4179988,165.727994 90.658,166.976 C90.8980012,168.224006 91.018,169.519993 91.018,170.864 C91.018,172.208007 90.8980012,173.503994 90.658,174.752 C90.4179988,176.000006 90.0100029,177.111995 89.434,178.088 C88.8579971,179.064005 88.0900048,179.839997 87.13,180.416 C86.1699952,180.992003 84.986007,181.28 83.578,181.28 C82.169993,181.28 80.9860048,180.992003 80.026,180.416 C79.0659952,179.839997 78.2980029,179.064005 77.722,178.088 C77.1459971,177.111995 76.7380012,176.000006 76.498,174.752 C76.2579988,173.503994 76.138,172.208007 76.138,170.864 L76.138,170.864 Z M71.914,170.864 C71.914,173.040011 72.2579966,174.887992 72.946,176.408 C73.6340034,177.928008 74.5379944,179.159995 75.658,180.104 C76.7780056,181.048005 78.033993,181.711998 79.426,182.096 C80.818007,182.480002 82.2019931,182.672 83.578,182.672 C84.986007,182.672 86.3779931,182.480002 87.754,182.096 C89.1300069,181.711998 90.3779944,181.048005 91.498,180.104 C92.6180056,179.159995 93.5219966,177.928008 94.21,176.408 C94.8980034,174.887992 95.242,173.040011 95.242,170.864 C95.242,168.687989 94.8980034,166.840008 94.21,165.32 C93.5219966,163.799992 92.6180056,162.568005 91.498,161.624 C90.3779944,160.679995 89.1300069,159.992002 87.754,159.56 C86.3779931,159.127998 84.986007,158.912 83.578,158.912 C82.2019931,158.912 80.818007,159.127998 79.426,159.56 C78.033993,159.992002 76.7780056,160.679995 75.658,161.624 C74.5379944,162.568005 73.6340034,163.799992 72.946,165.32 C72.2579966,166.840008 71.914,168.687989 71.914,170.864 L71.914,170.864 Z M115.266,182.192 C116.002004,182.128 116.785996,182.096 117.618,182.096 C118.450004,182.096 119.233996,182.128 119.97,182.192 C119.874,180.20799 119.786,178.19201 119.706,176.144 C119.626,174.09599 119.586,172.016011 119.586,169.904 L119.586,165.728 C119.586,165.535999 119.665999,165.44 119.826,165.44 C119.954001,165.44 120.145999,165.567999 120.402,165.824 C120.914003,166.336003 121.705995,167.223994 122.778,168.488 C123.850005,169.752006 125.049993,171.175992 126.378,172.76 C127.706007,174.344008 129.065993,175.983992 130.458,177.68 C131.850007,179.376008 133.121994,180.879993 134.274,182.192 C134.722002,182.128 135.161998,182.096 135.594,182.096 L136.914,182.096 L138.354,182.096 C138.834002,182.096 139.313998,182.128 139.794,182.192 C137.073986,179.151985 134.394013,176.120015 131.754,173.096 C129.113987,170.071985 126.498013,167.104015 123.906,164.192 C124.770004,163.199995 125.849994,162.040007 127.146,160.712 C128.442006,159.383993 129.801993,158.032007 131.226,156.656 C132.650007,155.279993 134.065993,153.936007 135.474,152.624 C136.882007,151.311993 138.145994,150.176005 139.266,149.216 C138.881998,149.28 138.498002,149.336 138.114,149.384 C137.729998,149.432 137.346002,149.456 136.962,149.456 C136.641998,149.456 136.322002,149.432 136.002,149.384 C135.681998,149.336 135.346002,149.28 134.994,149.216 C133.873994,150.496006 132.706006,151.815993 131.49,153.176 C130.273994,154.536007 129.042006,155.871993 127.794,157.184 C126.545994,158.496007 125.306006,159.759994 124.074,160.976 C122.841994,162.192006 121.666006,163.279995 120.546,164.24 C120.225998,164.528001 120.002001,164.672 119.874,164.672 C119.681999,164.672 119.586,164.544001 119.586,164.288 L119.586,161.648 C119.586,159.535989 119.626,157.46401 119.706,155.432 C119.786,153.39999 119.874,151.328011 119.97,149.216 C119.553998,149.28 119.154002,149.336 118.77,149.384 C118.385998,149.432 118.002002,149.456 117.618,149.456 C117.233998,149.456 116.850002,149.432 116.466,149.384 C116.081998,149.336 115.682002,149.28 115.266,149.216 C115.362,151.328011 115.45,153.39999 115.53,155.432 C115.61,157.46401 115.65,159.535989 115.65,161.648 L115.65,169.904 C115.65,172.016011 115.61,174.09599 115.53,176.144 C115.45,178.19201 115.362,180.20799 115.266,182.192 L115.266,182.192 Z M159.91,168.704 L159.91,171.632 C159.91,173.488009 159.87,175.295991 159.79,177.056 C159.71,178.816009 159.638,180.527992 159.574,182.192 C160.214003,182.128 160.869997,182.096 161.542,182.096 C162.246004,182.096 162.917997,182.128 163.558,182.192 C163.526,181.743998 163.502,181.272002 163.486,180.776 C163.47,180.279998 163.462,179.776003 163.462,179.264 L163.462,176.144 C163.462,174.511992 163.494,172.968007 163.558,171.512 C163.622,170.055993 163.654,168.640007 163.654,167.264 C163.654,165.599992 163.422002,164.232005 162.958,163.16 C162.493998,162.087995 161.894004,161.240003 161.158,160.616 C160.421996,159.991997 159.598005,159.552001 158.686,159.296 C157.773995,159.039999 156.870004,158.912 155.974,158.912 C154.245991,158.912 152.758006,159.287996 151.51,160.04 C150.261994,160.792004 149.190004,161.855993 148.294,163.232 L148.198,163.232 C148.198,161.951994 148.246,160.672006 148.342,159.392 C147.925998,159.456 147.566002,159.512 147.262,159.56 C146.957998,159.608 146.678001,159.632 146.422,159.632 C145.877997,159.632 145.158004,159.552001 144.262,159.392 C144.422001,160.768007 144.526,162.247992 144.574,163.832 C144.622,165.416008 144.646,166.927993 144.646,168.368 L144.646,173.36 C144.646,174.800007 144.622,176.311992 144.574,177.896 C144.526,179.480008 144.422001,180.911994 144.262,182.192 C144.998004,182.128 145.717996,182.096 146.422,182.096 C147.126004,182.096 147.845996,182.128 148.582,182.192 C148.421999,180.911994 148.318,179.480008 148.27,177.896 C148.222,176.311992 148.198,174.800007 148.198,173.36 L148.198,169.28 C148.198,166.783988 148.717995,164.848007 149.758,163.472 C150.798005,162.095993 152.437989,161.408 154.678,161.408 C156.310008,161.408 157.589995,162.023994 158.518,163.256 C159.446005,164.488006 159.91,166.303988 159.91,168.704 L159.91,168.704 Z M173.546,170.864 C173.546,169.519993 173.665999,168.224006 173.906,166.976 C174.146001,165.727994 174.553997,164.616005 175.13,163.64 C175.706003,162.663995 176.473995,161.888003 177.434,161.312 C178.394005,160.735997 179.577993,160.448 180.986,160.448 C182.394007,160.448 183.577995,160.735997 184.538,161.312 C185.498005,161.888003 186.265997,162.663995 186.842,163.64 C187.418003,164.616005 187.825999,165.727994 188.066,166.976 C188.306001,168.224006 188.426,169.519993 188.426,170.864 C188.426,172.208007 188.306001,173.503994 188.066,174.752 C187.825999,176.000006 187.418003,177.111995 186.842,178.088 C186.265997,179.064005 185.498005,179.839997 184.538,180.416 C183.577995,180.992003 182.394007,181.28 180.986,181.28 C179.577993,181.28 178.394005,180.992003 177.434,180.416 C176.473995,179.839997 175.706003,179.064005 175.13,178.088 C174.553997,177.111995 174.146001,176.000006 173.906,174.752 C173.665999,173.503994 173.546,172.208007 173.546,170.864 L173.546,170.864 Z M169.322,170.864 C169.322,173.040011 169.665997,174.887992 170.354,176.408 C171.042003,177.928008 171.945994,179.159995 173.066,180.104 C174.186006,181.048005 175.441993,181.711998 176.834,182.096 C178.226007,182.480002 179.609993,182.672 180.986,182.672 C182.394007,182.672 183.785993,182.480002 185.162,182.096 C186.538007,181.711998 187.785994,181.048005 188.906,180.104 C190.026006,179.159995 190.929997,177.928008 191.618,176.408 C192.306003,174.887992 192.65,173.040011 192.65,170.864 C192.65,168.687989 192.306003,166.840008 191.618,165.32 C190.929997,163.799992 190.026006,162.568005 188.906,161.624 C187.785994,160.679995 186.538007,159.992002 185.162,159.56 C183.785993,159.127998 182.394007,158.912 180.986,158.912 C179.609993,158.912 178.226007,159.127998 176.834,159.56 C175.441993,159.992002 174.186006,160.679995 173.066,161.624 C171.945994,162.568005 171.042003,163.799992 170.354,165.32 C169.665997,166.840008 169.322,168.687989 169.322,170.864 L169.322,170.864 Z M203.358,182.192 C203.742002,182.128 204.189997,182.096 204.702,182.096 C205.214003,182.096 205.661998,182.128 206.046,182.192 C206.494002,180.847993 207.005997,179.336008 207.582,177.656 C208.158003,175.975992 208.733997,174.320008 209.31,172.688 C209.886003,171.055992 210.445997,169.528007 210.99,168.104 C211.534003,166.679993 211.997998,165.488005 212.382,164.528 C213.662006,167.696016 214.797995,170.719986 215.79,173.6 C216.782005,176.480014 217.693996,179.343986 218.526,182.192 C218.686001,182.128 218.877999,182.096 219.102,182.096 L219.774,182.096 C220.254002,182.096 220.669998,182.128 221.022,182.192 C222.398007,178.415981 223.877992,174.640019 225.462,170.864 C227.046008,167.087981 228.749991,163.264019 230.574,159.392 C230.029997,159.552001 229.550002,159.632 229.134,159.632 C228.749998,159.632 228.238003,159.552001 227.598,159.392 C227.053997,160.896008 226.470003,162.511991 225.846,164.24 C225.221997,165.968009 224.606003,167.655992 223.998,169.304 C223.389997,170.952008 222.806003,172.519993 222.246,174.008 C221.685997,175.496007 221.198002,176.751995 220.782,177.776 C219.629994,174.575984 218.526005,171.480015 217.47,168.488 C216.413995,165.495985 215.486004,162.464015 214.686,159.392 C214.429999,159.456 214.206001,159.512 214.014,159.56 C213.821999,159.608 213.598001,159.632 213.342,159.632 C212.957998,159.632 212.478003,159.552001 211.902,159.392 C211.453998,160.896008 210.942003,162.527991 210.366,164.288 C209.789997,166.048009 209.214003,167.775992 208.638,169.472 C208.061997,171.168008 207.502003,172.751993 206.958,174.224 C206.413997,175.696007 205.950002,176.879996 205.566,177.776 C204.317994,174.575984 203.190005,171.464015 202.182,168.44 C201.173995,165.415985 200.254004,162.400015 199.422,159.392 C199.005998,159.456 198.622002,159.512 198.27,159.56 C197.917998,159.608 197.566002,159.632 197.214,159.632 C196.829998,159.632 196.454002,159.608 196.086,159.56 C195.717998,159.512 195.342002,159.456 194.958,159.392 C195.758004,161.31201 196.565996,163.351989 197.382,165.512 C198.198004,167.672011 198.981996,169.78399 199.734,171.848 C200.486004,173.91201 201.181997,175.855991 201.822,177.68 C202.462003,179.504009 202.973998,181.007994 203.358,182.192 L203.358,182.192 Z M251.366,170.864 C251.366,169.519993 251.485999,168.224006 251.726,166.976 C251.966001,165.727994 252.373997,164.616005 252.95,163.64 C253.526003,162.663995 254.293995,161.888003 255.254,161.312 C256.214005,160.735997 257.397993,160.448 258.806,160.448 C260.214007,160.448 261.397995,160.735997 262.358,161.312 C263.318005,161.888003 264.085997,162.663995 264.662,163.64 C265.238003,164.616005 265.645999,165.727994 265.886,166.976 C266.126001,168.224006 266.246,169.519993 266.246,170.864 C266.246,172.208007 266.126001,173.503994 265.886,174.752 C265.645999,176.000006 265.238003,177.111995 264.662,178.088 C264.085997,179.064005 263.318005,179.839997 262.358,180.416 C261.397995,180.992003 260.214007,181.28 258.806,181.28 C257.397993,181.28 256.214005,180.992003 255.254,180.416 C254.293995,179.839997 253.526003,179.064005 252.95,178.088 C252.373997,177.111995 251.966001,176.000006 251.726,174.752 C251.485999,173.503994 251.366,172.208007 251.366,170.864 L251.366,170.864 Z M247.142,170.864 C247.142,173.040011 247.485997,174.887992 248.174,176.408 C248.862003,177.928008 249.765994,179.159995 250.886,180.104 C252.006006,181.048005 253.261993,181.711998 254.654,182.096 C256.046007,182.480002 257.429993,182.672 258.806,182.672 C260.214007,182.672 261.605993,182.480002 262.982,182.096 C264.358007,181.711998 265.605994,181.048005 266.726,180.104 C267.846006,179.159995 268.749997,177.928008 269.438,176.408 C270.126003,174.887992 270.47,173.040011 270.47,170.864 C270.47,168.687989 270.126003,166.840008 269.438,165.32 C268.749997,163.799992 267.846006,162.568005 266.726,161.624 C265.605994,160.679995 264.358007,159.992002 262.982,159.56 C261.605993,159.127998 260.214007,158.912 258.806,158.912 C257.429993,158.912 256.046007,159.127998 254.654,159.56 C253.261993,159.992002 252.006006,160.679995 250.886,161.624 C249.765994,162.568005 248.862003,163.799992 248.174,165.32 C247.485997,166.840008 247.142,168.687989 247.142,170.864 L247.142,170.864 Z M276.138,174.944 C276.138,177.440012 276.849993,179.351993 278.274,180.68 C279.698007,182.008007 281.657988,182.672 284.154,182.672 C285.690008,182.672 287.113993,182.312004 288.426,181.592 C289.738007,180.871996 290.809996,179.744008 291.642,178.208 L291.738,178.208 L291.738,180.272 C291.738,180.624002 291.73,180.959998 291.714,181.28 C291.698,181.600002 291.674,181.903999 291.642,182.192 C292.282003,182.128 292.905997,182.096 293.514,182.096 C294.122003,182.096 294.745997,182.128 295.386,182.192 C295.322,180.911994 295.274,179.584007 295.242,178.208 C295.21,176.831993 295.194,175.424007 295.194,173.984 C295.194,171.391987 295.21,168.936012 295.242,166.616 C295.274,164.295988 295.369999,161.888012 295.53,159.392 C295.209998,159.456 294.890002,159.512 294.57,159.56 C294.249998,159.608 293.914002,159.632 293.562,159.632 C293.209998,159.632 292.874002,159.608 292.554,159.56 C292.233998,159.512 291.898002,159.456 291.546,159.392 C291.578,159.968003 291.602,160.575997 291.618,161.216 C291.634,161.856003 291.642,162.527996 291.642,163.232 L291.642,167.264 C291.642,169.152009 291.634,170.639995 291.618,171.728 C291.602,172.816005 291.554,173.679997 291.474,174.32 C291.394,174.960003 291.290001,175.471998 291.162,175.856 C291.033999,176.240002 290.858001,176.703997 290.634,177.248 C290.217998,178.112004 289.562005,178.839997 288.666,179.432 C287.769996,180.024003 286.650007,180.32 285.306,180.32 C284.377995,180.32 283.570003,180.152002 282.882,179.816 C282.193997,179.479998 281.626002,179.056003 281.178,178.544 C280.761998,178.095998 280.410001,177.432004 280.122,176.552 C279.833999,175.671996 279.69,174.400008 279.69,172.736 C279.69,170.335988 279.73,167.992011 279.81,165.704 C279.89,163.415989 280.009999,161.31201 280.17,159.392 C279.369996,159.552001 278.714003,159.632 278.202,159.632 C277.657997,159.632 276.986004,159.552001 276.186,159.392 C276.218,160.736007 276.242,162.063993 276.258,163.376 C276.274,164.688007 276.282,165.903994 276.282,167.024 C276.282,168.208006 276.258,169.399994 276.21,170.6 C276.162,171.800006 276.138,173.247992 276.138,174.944 L276.138,174.944 Z M314.158,163.328 L314.494,163.088 C314.494,162.447997 314.51,161.736004 314.542,160.952 C314.574,160.167996 314.669999,159.584002 314.83,159.2 C314.509998,159.071999 314.246001,158.992 314.038,158.96 C313.829999,158.928 313.582001,158.912 313.294,158.912 C310.957988,158.912 308.846009,160.639983 306.958,164.096 L306.862,164.048 C306.862,163.439997 306.87,162.800003 306.886,162.128 C306.902,161.455997 306.973999,160.544006 307.102,159.392 C306.749998,159.456 306.414002,159.512 306.094,159.56 C305.773998,159.608 305.470001,159.632 305.182,159.632 C304.829998,159.632 304.494002,159.608 304.174,159.56 C303.853998,159.512 303.518002,159.456 303.166,159.392 C303.262001,161.504011 303.318,163.375992 303.334,165.008 C303.35,166.640008 303.358,168.079994 303.358,169.328 L303.358,170.864 C303.358,173.584014 303.35,175.879991 303.334,177.752 C303.318,179.624009 303.262001,181.103995 303.166,182.192 C303.806003,182.128 304.477997,182.096 305.182,182.096 C305.822003,182.096 306.461997,182.128 307.102,182.192 C307.006,181.487996 306.95,180.568006 306.934,179.432 C306.918,178.295994 306.91,176.656011 306.91,174.512 L306.91,169.232 C306.91,168.303995 307.021999,167.432004 307.246,166.616 C307.470001,165.799996 307.789998,165.096003 308.206,164.504 C308.622002,163.911997 309.133997,163.440002 309.742,163.088 C310.350003,162.735998 311.037996,162.56 311.806,162.56 C312.286002,162.56 312.757998,162.639999 313.222,162.8 C313.686002,162.960001 313.997999,163.135999 314.158,163.328 L314.158,163.328 Z M338.166,165.248 L338.166,150.992 L342.486,150.992 C343.734006,150.992 344.853995,151.079999 345.846,151.256 C346.838005,151.432001 347.677997,151.759998 348.366,152.24 C349.054003,152.720002 349.589998,153.391996 349.974,154.256 C350.358002,155.120004 350.55,156.239993 350.55,157.616 C350.55,159.248008 350.270003,160.583995 349.71,161.624 C349.149997,162.664005 348.430004,163.479997 347.55,164.072 C346.669996,164.664003 345.702005,165.071999 344.646,165.296 C343.589995,165.520001 342.566005,165.632 341.574,165.632 C340.389994,165.632 339.254005,165.504001 338.166,165.248 L338.166,165.248 Z M334.23,161.648 L334.23,169.904 C334.23,172.016011 334.19,174.09599 334.11,176.144 C334.03,178.19201 333.942001,180.20799 333.846,182.192 C334.582004,182.128 335.365996,182.096 336.198,182.096 C337.030004,182.096 337.813996,182.128 338.55,182.192 C338.454,180.20799 338.366,178.19201 338.286,176.144 C338.206,174.09599 338.166,172.016011 338.166,169.904 L338.166,167.264 C338.806003,167.328 339.429997,167.368 340.038,167.384 C340.646003,167.4 341.317996,167.408 342.054,167.408 C343.206006,167.408 344.525993,167.280001 346.014,167.024 C347.502007,166.767999 348.909993,166.272004 350.238,165.536 C351.566007,164.799996 352.685995,163.776007 353.598,162.464 C354.510005,161.151993 354.966,159.440011 354.966,157.328 C354.966,155.983993 354.774002,154.856005 354.39,153.944 C354.005998,153.031995 353.502003,152.272003 352.878,151.664 C352.253997,151.055997 351.558004,150.592002 350.79,150.272 C350.021996,149.951998 349.246004,149.712001 348.462,149.552 C347.677996,149.391999 346.934004,149.296 346.23,149.264 C345.525997,149.232 344.934002,149.216 344.454,149.216 C344.101998,149.216 343.670003,149.232 343.158,149.264 C342.645997,149.296 342.110003,149.32 341.55,149.336 C340.989997,149.352 340.438003,149.376 339.894,149.408 C339.349997,149.44 338.886002,149.456 338.502,149.456 C337.733996,149.456 336.958004,149.432 336.174,149.384 C335.389996,149.336 334.614004,149.28 333.846,149.216 C333.942001,151.328011 334.03,153.39999 334.11,155.432 C334.19,157.46401 334.23,159.535989 334.23,161.648 L334.23,161.648 Z M360.298,170.864 C360.298,169.519993 360.417999,168.224006 360.658,166.976 C360.898001,165.727994 361.305997,164.616005 361.882,163.64 C362.458003,162.663995 363.225995,161.888003 364.186,161.312 C365.146005,160.735997 366.329993,160.448 367.738,160.448 C369.146007,160.448 370.329995,160.735997 371.29,161.312 C372.250005,161.888003 373.017997,162.663995 373.594,163.64 C374.170003,164.616005 374.577999,165.727994 374.818,166.976 C375.058001,168.224006 375.178,169.519993 375.178,170.864 C375.178,172.208007 375.058001,173.503994 374.818,174.752 C374.577999,176.000006 374.170003,177.111995 373.594,178.088 C373.017997,179.064005 372.250005,179.839997 371.29,180.416 C370.329995,180.992003 369.146007,181.28 367.738,181.28 C366.329993,181.28 365.146005,180.992003 364.186,180.416 C363.225995,179.839997 362.458003,179.064005 361.882,178.088 C361.305997,177.111995 360.898001,176.000006 360.658,174.752 C360.417999,173.503994 360.298,172.208007 360.298,170.864 L360.298,170.864 Z M356.074,170.864 C356.074,173.040011 356.417997,174.887992 357.106,176.408 C357.794003,177.928008 358.697994,179.159995 359.818,180.104 C360.938006,181.048005 362.193993,181.711998 363.586,182.096 C364.978007,182.480002 366.361993,182.672 367.738,182.672 C369.146007,182.672 370.537993,182.480002 371.914,182.096 C373.290007,181.711998 374.537994,181.048005 375.658,180.104 C376.778006,179.159995 377.681997,177.928008 378.37,176.408 C379.058003,174.887992 379.402,173.040011 379.402,170.864 C379.402,168.687989 379.058003,166.840008 378.37,165.32 C377.681997,163.799992 376.778006,162.568005 375.658,161.624 C374.537994,160.679995 373.290007,159.992002 371.914,159.56 C370.537993,159.127998 369.146007,158.912 367.738,158.912 C366.361993,158.912 364.978007,159.127998 363.586,159.56 C362.193993,159.992002 360.938006,160.679995 359.818,161.624 C358.697994,162.568005 357.794003,163.799992 357.106,165.32 C356.417997,166.840008 356.074,168.687989 356.074,170.864 L356.074,170.864 Z M390.11,182.192 C390.494002,182.128 390.941997,182.096 391.454,182.096 C391.966003,182.096 392.413998,182.128 392.798,182.192 C393.246002,180.847993 393.757997,179.336008 394.334,177.656 C394.910003,175.975992 395.485997,174.320008 396.062,172.688 C396.638003,171.055992 397.197997,169.528007 397.742,168.104 C398.286003,166.679993 398.749998,165.488005 399.134,164.528 C400.414006,167.696016 401.549995,170.719986 402.542,173.6 C403.534005,176.480014 404.445996,179.343986 405.278,182.192 C405.438001,182.128 405.629999,182.096 405.854,182.096 L406.526,182.096 C407.006002,182.096 407.421998,182.128 407.774,182.192 C409.150007,178.415981 410.629992,174.640019 412.214,170.864 C413.798008,167.087981 415.501991,163.264019 417.326,159.392 C416.781997,159.552001 416.302002,159.632 415.886,159.632 C415.501998,159.632 414.990003,159.552001 414.35,159.392 C413.805997,160.896008 413.222003,162.511991 412.598,164.24 C411.973997,165.968009 411.358003,167.655992 410.75,169.304 C410.141997,170.952008 409.558003,172.519993 408.998,174.008 C408.437997,175.496007 407.950002,176.751995 407.534,177.776 C406.381994,174.575984 405.278005,171.480015 404.222,168.488 C403.165995,165.495985 402.238004,162.464015 401.438,159.392 C401.181999,159.456 400.958001,159.512 400.766,159.56 C400.573999,159.608 400.350001,159.632 400.094,159.632 C399.709998,159.632 399.230003,159.552001 398.654,159.392 C398.205998,160.896008 397.694003,162.527991 397.118,164.288 C396.541997,166.048009 395.966003,167.775992 395.39,169.472 C394.813997,171.168008 394.254003,172.751993 393.71,174.224 C393.165997,175.696007 392.702002,176.879996 392.318,177.776 C391.069994,174.575984 389.942005,171.464015 388.934,168.44 C387.925995,165.415985 387.006004,162.400015 386.174,159.392 C385.757998,159.456 385.374002,159.512 385.022,159.56 C384.669998,159.608 384.318002,159.632 383.966,159.632 C383.581998,159.632 383.206002,159.608 382.838,159.56 C382.469998,159.512 382.094002,159.456 381.71,159.392 C382.510004,161.31201 383.317996,163.351989 384.134,165.512 C384.950004,167.672011 385.733996,169.78399 386.486,171.848 C387.238004,173.91201 387.933997,175.855991 388.574,177.68 C389.214003,179.504009 389.725998,181.007994 390.11,182.192 L390.11,182.192 Z M431.298,160.448 C432.546006,160.448 433.553996,160.719997 434.322,161.264 C435.090004,161.808003 435.689998,162.495996 436.122,163.328 C436.554002,164.160004 436.841999,165.055995 436.986,166.016 C437.130001,166.976005 437.202,167.887996 437.202,168.752 C436.177995,168.784 435.122005,168.816 434.034,168.848 C432.945995,168.88 431.874005,168.896 430.818,168.896 C429.793995,168.896 428.746005,168.88 427.674,168.848 C426.601995,168.816 425.570005,168.784 424.578,168.752 C424.642,167.887996 424.809999,166.968005 425.082,165.992 C425.354001,165.015995 425.753997,164.120004 426.282,163.304 C426.810003,162.487996 427.481996,161.808003 428.298,161.264 C429.114004,160.719997 430.113994,160.448 431.298,160.448 L431.298,160.448 Z M420.21,171.536 C420.21,173.136008 420.489997,174.623993 421.05,176 C421.610003,177.376007 422.409995,178.567995 423.45,179.576 C424.490005,180.584005 425.721993,181.351997 427.146,181.88 C428.570007,182.408003 430.145991,182.672 431.874,182.672 C433.410008,182.672 434.889993,182.400003 436.314,181.856 C437.738007,181.311997 438.929995,180.656004 439.89,179.888 L440.178,177.536 L439.938,177.392 C439.521998,177.872002 439.034003,178.319998 438.474,178.736 C437.913997,179.152002 437.314003,179.511998 436.674,179.816 C436.033997,180.120002 435.378003,180.359999 434.706,180.536 C434.033997,180.712001 433.378003,180.8 432.738,180.8 C431.393993,180.8 430.210005,180.568002 429.186,180.104 C428.161995,179.639998 427.298004,179.016004 426.594,178.232 C425.889997,177.447996 425.354002,176.512005 424.986,175.424 C424.617998,174.335995 424.434,173.168006 424.434,171.92 L424.434,171.296 C424.434,170.975998 424.45,170.736001 424.482,170.576 C425.538005,170.544 426.585995,170.512 427.626,170.48 C428.666005,170.448 429.713995,170.432 430.77,170.432 C432.498009,170.432 434.209992,170.448 435.906,170.48 C437.602009,170.512 439.313991,170.544 441.042,170.576 C441.074,170.255998 441.098,169.944002 441.114,169.64 C441.13,169.335998 441.138,169.024002 441.138,168.704 C441.138,167.359993 440.938002,166.096006 440.538,164.912 C440.137998,163.727994 439.522004,162.696004 438.69,161.816 C437.857996,160.935996 436.826006,160.232003 435.594,159.704 C434.361994,159.175997 432.898009,158.912 431.202,158.912 C427.617982,158.912 424.890009,160.031989 423.018,162.272 C421.145991,164.512011 420.21,167.59998 420.21,171.536 L420.21,171.536 Z M457.51,163.328 L457.846,163.088 C457.846,162.447997 457.862,161.736004 457.894,160.952 C457.926,160.167996 458.021999,159.584002 458.182,159.2 C457.861998,159.071999 457.598001,158.992 457.39,158.96 C457.181999,158.928 456.934002,158.912 456.646,158.912 C454.309988,158.912 452.19801,160.639983 450.31,164.096 L450.214,164.048 C450.214,163.439997 450.222,162.800003 450.238,162.128 C450.254,161.455997 450.325999,160.544006 450.454,159.392 C450.101998,159.456 449.766002,159.512 449.446,159.56 C449.125998,159.608 448.822002,159.632 448.534,159.632 C448.181998,159.632 447.846002,159.608 447.526,159.56 C447.205998,159.512 446.870002,159.456 446.518,159.392 C446.614001,161.504011 446.67,163.375992 446.686,165.008 C446.702,166.640008 446.71,168.079994 446.71,169.328 L446.71,170.864 C446.71,173.584014 446.702,175.879991 446.686,177.752 C446.67,179.624009 446.614001,181.103995 446.518,182.192 C447.158003,182.128 447.829997,182.096 448.534,182.096 C449.174003,182.096 449.813997,182.128 450.454,182.192 C450.358,181.487996 450.302,180.568006 450.286,179.432 C450.27,178.295994 450.262,176.656011 450.262,174.512 L450.262,169.232 C450.262,168.303995 450.373999,167.432004 450.598,166.616 C450.822001,165.799996 451.141998,165.096003 451.558,164.504 C451.974002,163.911997 452.485997,163.440002 453.094,163.088 C453.702003,162.735998 454.389996,162.56 455.158,162.56 C455.638002,162.56 456.109998,162.639999 456.574,162.8 C457.038002,162.960001 457.349999,163.135999 457.51,163.328 L457.51,163.328 Z" id="To-Know-Ourselves-is"></path>
        </g>
    </g>
</svg>