<?xml version="1.0" encoding="UTF-8" standalone="no"?>
<svg width="514px" height="209px" viewBox="0 0 514 209" version="1.1" xmlns="http://www.w3.org/2000/svg" xmlns:xlink="http://www.w3.org/1999/xlink">
    <!-- Generator: Sketch 39.1 (31720) - http://www.bohemiancoding.com/sketch -->
    <title>Artboard 2</title>
    <desc>Created with Sketch.</desc>
    <defs></defs>
    <g id="Page-1" stroke="none" stroke-width="1" fill="none" fill-rule="evenodd" fill-opacity="0.2">
        <g id="Artboard-2" fill="#FFA8A8">
            <path d="M37.118,99.552 L37.118,107.808 C37.118,109.920011 37.0780004,111.99999 36.998,114.048 C36.9179996,116.09601 36.8300004,118.11199 36.734,120.096 C38.2700076,120.032 39.7499928,120 41.174,120 L45.614,120 L50.03,120 C51.5020073,120 52.9739926,120.032 54.446,120.096 C54.2859992,119.583997 54.206,119.152002 54.206,118.8 C54.206,118.415998 54.2859992,117.936003 54.446,117.36 C52.045988,117.680002 49.8060104,117.864 47.726,117.912 C45.6459896,117.96 43.4700113,117.984 41.198,117.984 C41.1659998,115.647988 41.1340001,113.000015 41.102,110.04 C41.0699998,107.079985 41.054,103.58402 41.054,99.552 C41.054,97.4399894 41.0939996,95.3680102 41.174,93.336 C41.2540004,91.3039898 41.3419995,89.2320106 41.438,87.12 C41.0219979,87.1840003 40.6220019,87.2399998 40.238,87.288 C39.853998,87.3360002 39.4700019,87.36 39.086,87.36 C38.701998,87.36 38.3180019,87.3360002 37.934,87.288 C37.549998,87.2399998 37.150002,87.1840003 36.734,87.12 C36.8300004,89.2320106 36.9179996,91.3039898 36.998,93.336 C37.0780004,95.3680102 37.118,97.4399894 37.118,99.552 L37.118,99.552 Z M60.978,88.944 C60.978,89.6160034 61.2179976,90.1919976 61.698,90.672 C62.1780024,91.1520024 62.7539966,91.392 63.426,91.392 C64.0980033,91.392 64.6739976,91.1520024 65.154,90.672 C65.6340024,90.1919976 65.874,89.6160034 65.874,88.944 C65.874,88.2719966 65.6340024,87.6960024 65.154,87.216 C64.6739976,86.7359976 64.0980033,86.496 63.426,86.496 C62.7539966,86.496 62.1780024,86.7359976 61.698,87.216 C61.2179976,87.6960024 60.978,88.2719966 60.978,88.944 L60.978,88.944 Z M61.65,106.272 L61.65,111.264 C61.65,112.704007 61.6260002,114.215992 61.578,115.8 C61.5299997,117.384008 61.4260008,118.815994 61.266,120.096 C62.0020036,120.032 62.7219964,120 63.426,120 C64.1300035,120 64.8499963,120.032 65.586,120.096 C65.4259992,118.815994 65.3220002,117.384008 65.274,115.8 C65.2259997,114.215992 65.202,112.704007 65.202,111.264 L65.202,106.272 C65.202,104.831993 65.2259997,103.320008 65.274,101.736 C65.3220002,100.151992 65.4259992,98.6720069 65.586,97.296 C64.6899955,97.4560008 63.9700027,97.536 63.426,97.536 C62.8819972,97.536 62.1620044,97.4560008 61.266,97.296 C61.4260008,98.6720069 61.5299997,100.151992 61.578,101.736 C61.6260002,103.320008 61.65,104.831993 61.65,106.272 L61.65,106.272 Z M79.894,120.096 C80.4060025,120.032 80.9179974,120 81.43,120 C81.9420025,120 82.4379976,120.032 82.918,120.096 C84.2940068,116.319981 85.8139916,112.544019 87.478,108.768 C89.1420083,104.991981 90.8379913,101.168019 92.566,97.296 C91.9899971,97.4560008 91.494002,97.536 91.078,97.536 C90.6619979,97.536 90.1660028,97.4560008 89.59,97.296 C89.0139971,98.8640078 88.4300029,100.471992 87.838,102.12 C87.245997,103.768008 86.6380031,105.407992 86.014,107.04 C85.3899968,108.672008 84.7660031,110.247992 84.142,111.768 C83.5179968,113.288008 82.8860032,114.703993 82.246,116.016 C80.8059928,112.815984 79.5020058,109.688015 78.334,106.632 C77.1659941,103.575985 76.0860049,100.464016 75.094,97.296 C74.7419982,97.3600003 74.3900017,97.4159998 74.038,97.464 C73.6859982,97.5120002 73.3340017,97.536 72.982,97.536 C72.5659979,97.536 72.1660019,97.5120002 71.782,97.464 C71.397998,97.4159998 70.998002,97.3600003 70.582,97.296 C72.3420088,101.168019 73.9659925,104.991981 75.454,108.768 C76.9420074,112.544019 78.4219926,116.319981 79.894,120.096 L79.894,120.096 Z M106.106,98.352 C107.354006,98.352 108.361996,98.6239973 109.13,99.168 C109.898004,99.7120027 110.497998,100.399996 110.93,101.232 C111.362002,102.064004 111.649999,102.959995 111.794,103.92 C111.938001,104.880005 112.01,105.791996 112.01,106.656 C110.985995,106.688 109.930005,106.72 108.842,106.752 C107.753995,106.784 106.682005,106.8 105.626,106.8 C104.601995,106.8 103.554005,106.784 102.482,106.752 C101.409995,106.72 100.378005,106.688 99.386,106.656 C99.4500003,105.791996 99.6179986,104.872005 99.89,103.896 C100.162001,102.919995 100.561997,102.024004 101.09,101.208 C101.618003,100.391996 102.289996,99.7120027 103.106,99.168 C103.922004,98.6239973 104.921994,98.352 106.106,98.352 L106.106,98.352 Z M95.018,109.44 C95.018,111.040008 95.2979972,112.527993 95.858,113.904 C96.4180028,115.280007 97.2179948,116.471995 98.258,117.48 C99.2980052,118.488005 100.529993,119.255997 101.954,119.784 C103.378007,120.312003 104.953991,120.576 106.682,120.576 C108.218008,120.576 109.697993,120.304003 111.122,119.76 C112.546007,119.215997 113.737995,118.560004 114.698,117.792 L114.986,115.44 L114.746,115.296 C114.329998,115.776002 113.842003,116.223998 113.282,116.64 C112.721997,117.056002 112.122003,117.415998 111.482,117.72 C110.841997,118.024002 110.186003,118.263999 109.514,118.44 C108.841997,118.616001 108.186003,118.704 107.546,118.704 C106.201993,118.704 105.018005,118.472002 103.994,118.008 C102.969995,117.543998 102.106003,116.920004 101.402,116.136 C100.697996,115.351996 100.162002,114.416005 99.794,113.328 C99.4259981,112.239995 99.242,111.072006 99.242,109.824 L99.242,109.2 C99.242,108.879998 99.2579998,108.640001 99.29,108.48 C100.346005,108.448 101.393995,108.416 102.434,108.384 C103.474005,108.352 104.521995,108.336 105.578,108.336 C107.306009,108.336 109.017991,108.352 110.714,108.384 C112.410008,108.416 114.121991,108.448 115.85,108.48 C115.882,108.159998 115.906,107.848002 115.922,107.544 C115.938,107.239998 115.946,106.928002 115.946,106.608 C115.946,105.263993 115.746002,104.000006 115.346,102.816 C114.945998,101.631994 114.330004,100.600004 113.498,99.72 C112.665996,98.8399956 111.634006,98.1360026 110.402,97.608 C109.169994,97.0799974 107.706008,96.816 106.01,96.816 C102.425982,96.816 99.6980093,97.9359888 97.826,100.176 C95.9539906,102.416011 95.018,105.50398 95.018,109.44 L95.018,109.44 Z M140.578,120.096 C141.090003,120.032 141.649997,120 142.258,120 C142.866003,120 143.425997,120.032 143.938,120.096 C144.418002,118.687993 144.945997,117.120009 145.522,115.392 C146.098003,113.663991 146.689997,111.904009 147.298,110.112 C147.906003,108.319991 148.513997,106.544009 149.122,104.784 C149.730003,103.023991 150.297997,101.376008 150.826,99.84 C151.354003,98.3039923 151.833998,96.9200062 152.266,95.688 C152.698002,94.4559938 153.041999,93.4720037 153.298,92.736 L153.394,92.736 C155.026008,97.536024 156.545993,102.183978 157.954,106.68 C159.362007,111.176022 160.785993,115.647978 162.226,120.096 C162.738003,120.032 163.281997,120 163.858,120 C164.434003,120 164.977997,120.032 165.49,120.096 C165.778001,119.327996 166.217997,118.072009 166.81,116.328 C167.402003,114.583991 168.073996,112.616011 168.826,110.424 C169.578004,108.231989 170.361996,105.920012 171.178,103.488 C171.994004,101.055988 172.777996,98.7520109 173.53,96.576 C174.282004,94.3999891 174.961997,92.4640085 175.57,90.768 C176.178003,89.0719915 176.641998,87.8560037 176.962,87.12 C176.673999,87.1840003 176.394001,87.2399998 176.122,87.288 C175.849999,87.3360002 175.570001,87.36 175.282,87.36 C174.993999,87.36 174.714001,87.3360002 174.442,87.288 C174.169999,87.2399998 173.890001,87.1840003 173.602,87.12 C173.441999,87.8240035 173.146002,88.9119926 172.714,90.384 C172.281998,91.8560074 171.786003,93.5279906 171.226,95.4 C170.665997,97.2720094 170.074003,99.2399897 169.45,101.304 C168.825997,103.36801 168.218003,105.335991 167.626,107.208 C167.033997,109.080009 166.506002,110.759993 166.042,112.248 C165.577998,113.736007 165.234001,114.831996 165.01,115.536 L164.914,115.536 C164.625999,114.703996 164.234002,113.552007 163.738,112.08 C163.241998,110.607993 162.690003,108.960009 162.082,107.136 C161.473997,105.311991 160.842003,103.40801 160.186,101.424 C159.529997,99.4399901 158.914003,97.5280092 158.338,95.688 C157.761997,93.8479908 157.242002,92.1760075 156.778,90.672 C156.313998,89.1679925 155.970001,87.9840043 155.746,87.12 C155.105997,87.2800008 154.578002,87.36 154.162,87.36 C153.745998,87.36 153.218003,87.2800008 152.578,87.12 C152.385999,87.920004 152.066002,89.0639926 151.618,90.552 C151.169998,92.0400074 150.658003,93.687991 150.082,95.496 C149.505997,97.304009 148.882003,99.1999901 148.21,101.184 C147.537997,103.16801 146.898003,105.079991 146.29,106.92 C145.681997,108.760009 145.122003,110.439992 144.61,111.96 C144.097997,113.480008 143.698001,114.671996 143.41,115.536 L143.314,115.536 C142.353995,112.495985 141.498004,109.768012 140.746,107.352 C139.993996,104.935988 139.290003,102.632011 138.634,100.44 C137.977997,98.247989 137.362003,96.0880106 136.786,93.96 C136.209997,91.8319894 135.618003,89.5520122 135.01,87.12 C134.593998,87.1840003 134.194002,87.2399998 133.81,87.288 C133.425998,87.3360002 133.026002,87.36 132.61,87.36 C132.193998,87.36 131.794002,87.3360002 131.41,87.288 C131.025998,87.2399998 130.626002,87.1840003 130.21,87.12 C130.530002,87.9520042 130.969997,89.2319914 131.53,90.96 C132.090003,92.6880086 132.705997,94.6319892 133.378,96.792 C134.050003,98.9520108 134.753996,101.223988 135.49,103.608 C136.226004,105.992012 136.929997,108.271989 137.602,110.448 C138.274003,112.624011 138.873997,114.575991 139.402,116.304 C139.930003,118.032009 140.321999,119.295996 140.578,120.096 L140.578,120.096 Z M188.918,98.352 C190.166006,98.352 191.173996,98.6239973 191.942,99.168 C192.710004,99.7120027 193.309998,100.399996 193.742,101.232 C194.174002,102.064004 194.461999,102.959995 194.606,103.92 C194.750001,104.880005 194.822,105.791996 194.822,106.656 C193.797995,106.688 192.742005,106.72 191.654,106.752 C190.565995,106.784 189.494005,106.8 188.438,106.8 C187.413995,106.8 186.366005,106.784 185.294,106.752 C184.221995,106.72 183.190005,106.688 182.198,106.656 C182.262,105.791996 182.429999,104.872005 182.702,103.896 C182.974001,102.919995 183.373997,102.024004 183.902,101.208 C184.430003,100.391996 185.101996,99.7120027 185.918,99.168 C186.734004,98.6239973 187.733994,98.352 188.918,98.352 L188.918,98.352 Z M177.83,109.44 C177.83,111.040008 178.109997,112.527993 178.67,113.904 C179.230003,115.280007 180.029995,116.471995 181.07,117.48 C182.110005,118.488005 183.341993,119.255997 184.766,119.784 C186.190007,120.312003 187.765991,120.576 189.494,120.576 C191.030008,120.576 192.509993,120.304003 193.934,119.76 C195.358007,119.215997 196.549995,118.560004 197.51,117.792 L197.798,115.44 L197.558,115.296 C197.141998,115.776002 196.654003,116.223998 196.094,116.64 C195.533997,117.056002 194.934003,117.415998 194.294,117.72 C193.653997,118.024002 192.998003,118.263999 192.326,118.44 C191.653997,118.616001 190.998003,118.704 190.358,118.704 C189.013993,118.704 187.830005,118.472002 186.806,118.008 C185.781995,117.543998 184.918004,116.920004 184.214,116.136 C183.509996,115.351996 182.974002,114.416005 182.606,113.328 C182.237998,112.239995 182.054,111.072006 182.054,109.824 L182.054,109.2 C182.054,108.879998 182.07,108.640001 182.102,108.48 C183.158005,108.448 184.205995,108.416 185.246,108.384 C186.286005,108.352 187.333995,108.336 188.39,108.336 C190.118009,108.336 191.829992,108.352 193.526,108.384 C195.222008,108.416 196.933991,108.448 198.662,108.48 C198.694,108.159998 198.718,107.848002 198.734,107.544 C198.75,107.239998 198.758,106.928002 198.758,106.608 C198.758,105.263993 198.558002,104.000006 198.158,102.816 C197.757998,101.631994 197.142004,100.600004 196.31,99.72 C195.477996,98.8399956 194.446006,98.1360026 193.214,97.608 C191.981994,97.0799974 190.518008,96.816 188.822,96.816 C185.237982,96.816 182.510009,97.9359888 180.638,100.176 C178.765991,102.416011 177.83,105.50398 177.83,109.44 L177.83,109.44 Z M205.386,97.728 L205.386,106.416 C205.386,107.504005 205.378,108.687994 205.362,109.968 C205.346,111.248006 205.322,112.511994 205.29,113.76 C205.258,115.008006 205.218,116.191994 205.17,117.312 C205.122,118.432006 205.066,119.359996 205.002,120.096 C205.738004,120.032 206.457996,120 207.162,120 C207.866004,120 208.585996,120.032 209.322,120.096 C209.258,119.359996 209.202,118.432006 209.154,117.312 C209.106,116.191994 209.066,115.008006 209.034,113.76 C209.002,112.511994 208.978,111.248006 208.962,109.968 C208.946,108.687994 208.938,107.504005 208.938,106.416 L208.938,97.728 C208.938,96.6399946 208.946,95.4560064 208.962,94.176 C208.978,92.8959936 209.002,91.6320062 209.034,90.384 C209.066,89.1359938 209.106,87.9440057 209.154,86.808 C209.202,85.6719943 209.258,84.704004 209.322,83.904 C208.425996,84.0640008 207.706003,84.144 207.162,84.144 C206.617997,84.144 205.898004,84.0640008 205.002,83.904 C205.066,84.704004 205.122,85.6719943 205.17,86.808 C205.218,87.9440057 205.258,89.1359938 205.29,90.384 C205.322,91.6320062 205.346,92.8959936 205.362,94.176 C205.378,95.4560064 205.386,96.6399946 205.386,97.728 L205.386,97.728 Z M219.07,97.728 L219.07,106.416 C219.07,107.504005 219.062,108.687994 219.046,109.968 C219.03,111.248006 219.006,112.511994 218.974,113.76 C218.942,115.008006 218.902,116.191994 218.854,117.312 C218.806,118.432006 218.75,119.359996 218.686,120.096 C219.422004,120.032 220.141996,120 220.846,120 C221.550004,120 222.269996,120.032 223.006,120.096 C222.942,119.359996 222.886,118.432006 222.838,117.312 C222.79,116.191994 222.75,115.008006 222.718,113.76 C222.686,112.511994 222.662,111.248006 222.646,109.968 C222.63,108.687994 222.622,107.504005 222.622,106.416 L222.622,97.728 C222.622,96.6399946 222.63,95.4560064 222.646,94.176 C222.662,92.8959936 222.686,91.6320062 222.718,90.384 C222.75,89.1359938 222.79,87.9440057 222.838,86.808 C222.886,85.6719943 222.942,84.704004 223.006,83.904 C222.109996,84.0640008 221.390003,84.144 220.846,84.144 C220.301997,84.144 219.582004,84.0640008 218.686,83.904 C218.75,84.704004 218.806,85.6719943 218.854,86.808 C218.902,87.9440057 218.942,89.1359938 218.974,90.384 C219.006,91.6320062 219.03,92.8959936 219.046,94.176 C219.062,95.4560064 219.07,96.6399946 219.07,97.728 L219.07,97.728 Z M231.794,117.84 C231.794,118.576004 232.065997,119.191998 232.61,119.688 C233.154003,120.184002 233.793996,120.432 234.53,120.432 C235.266004,120.432 235.905997,120.184002 236.45,119.688 C236.994003,119.191998 237.266,118.576004 237.266,117.84 C237.266,117.103996 236.994003,116.464003 236.45,115.92 C235.905997,115.375997 235.266004,115.104 234.53,115.104 C233.793996,115.104 233.154003,115.375997 232.61,115.92 C232.065997,116.464003 231.794,117.103996 231.794,117.84 L231.794,117.84 Z M259.93,99.552 L259.93,107.808 C259.93,109.920011 259.89,111.99999 259.81,114.048 C259.73,116.09601 259.642,118.11199 259.546,120.096 C261.082008,120.032 262.561993,120 263.986,120 L268.426,120 L272.842,120 C274.314007,120 275.785993,120.032 277.258,120.096 C277.097999,119.583997 277.018,119.152002 277.018,118.8 C277.018,118.415998 277.097999,117.936003 277.258,117.36 C274.857988,117.680002 272.61801,117.864 270.538,117.912 C268.45799,117.96 266.282011,117.984 264.01,117.984 C263.978,115.647988 263.946,113.000015 263.914,110.04 C263.882,107.079985 263.866,103.58402 263.866,99.552 C263.866,97.4399894 263.906,95.3680102 263.986,93.336 C264.066,91.3039898 264.154,89.2320106 264.25,87.12 C263.833998,87.1840003 263.434002,87.2399998 263.05,87.288 C262.665998,87.3360002 262.282002,87.36 261.898,87.36 C261.513998,87.36 261.130002,87.3360002 260.746,87.288 C260.361998,87.2399998 259.962002,87.1840003 259.546,87.12 C259.642,89.2320106 259.73,91.3039898 259.81,93.336 C259.89,95.3680102 259.93,97.4399894 259.93,99.552 L259.93,99.552 Z M285.47,108.768 C285.47,107.423993 285.589999,106.128006 285.83,104.88 C286.070001,103.631994 286.477997,102.520005 287.054,101.544 C287.630003,100.567995 288.397995,99.7920029 289.358,99.216 C290.318005,98.6399971 291.501993,98.352 292.91,98.352 C294.318007,98.352 295.501995,98.6399971 296.462,99.216 C297.422005,99.7920029 298.189997,100.567995 298.766,101.544 C299.342003,102.520005 299.749999,103.631994 299.99,104.88 C300.230001,106.128006 300.35,107.423993 300.35,108.768 C300.35,110.112007 300.230001,111.407994 299.99,112.656 C299.749999,113.904006 299.342003,115.015995 298.766,115.992 C298.189997,116.968005 297.422005,117.743997 296.462,118.32 C295.501995,118.896003 294.318007,119.184 292.91,119.184 C291.501993,119.184 290.318005,118.896003 289.358,118.32 C288.397995,117.743997 287.630003,116.968005 287.054,115.992 C286.477997,115.015995 286.070001,113.904006 285.83,112.656 C285.589999,111.407994 285.47,110.112007 285.47,108.768 L285.47,108.768 Z M281.246,108.768 C281.246,110.944011 281.589997,112.791992 282.278,114.312 C282.966003,115.832008 283.869994,117.063995 284.99,118.008 C286.110006,118.952005 287.365993,119.615998 288.758,120 C290.150007,120.384002 291.533993,120.576 292.91,120.576 C294.318007,120.576 295.709993,120.384002 297.086,120 C298.462007,119.615998 299.709994,118.952005 300.83,118.008 C301.950006,117.063995 302.853997,115.832008 303.542,114.312 C304.230003,112.791992 304.574,110.944011 304.574,108.768 C304.574,106.591989 304.230003,104.744008 303.542,103.224 C302.853997,101.703992 301.950006,100.472005 300.83,99.528 C299.709994,98.5839953 298.462007,97.8960022 297.086,97.464 C295.709993,97.0319978 294.318007,96.816 292.91,96.816 C291.533993,96.816 290.150007,97.0319978 288.758,97.464 C287.365993,97.8960022 286.110006,98.5839953 284.99,99.528 C283.869994,100.472005 282.966003,101.703992 282.278,103.224 C281.589997,104.744008 281.246,106.591989 281.246,108.768 L281.246,108.768 Z M316.338,120.096 C316.850003,120.032 317.361997,120 317.874,120 C318.386003,120 318.881998,120.032 319.362,120.096 C320.738007,116.319981 322.257992,112.544019 323.922,108.768 C325.586008,104.991981 327.281991,101.168019 329.01,97.296 C328.433997,97.4560008 327.938002,97.536 327.522,97.536 C327.105998,97.536 326.610003,97.4560008 326.034,97.296 C325.457997,98.8640078 324.874003,100.471992 324.282,102.12 C323.689997,103.768008 323.082003,105.407992 322.458,107.04 C321.833997,108.672008 321.210003,110.247992 320.586,111.768 C319.961997,113.288008 319.330003,114.703993 318.69,116.016 C317.249993,112.815984 315.946006,109.688015 314.778,106.632 C313.609994,103.575985 312.530005,100.464016 311.538,97.296 C311.185998,97.3600003 310.834002,97.4159998 310.482,97.464 C310.129998,97.5120002 309.778002,97.536 309.426,97.536 C309.009998,97.536 308.610002,97.5120002 308.226,97.464 C307.841998,97.4159998 307.442002,97.3600003 307.026,97.296 C308.786009,101.168019 310.409993,104.991981 311.898,108.768 C313.386007,112.544019 314.865993,116.319981 316.338,120.096 L316.338,120.096 Z M342.55,98.352 C343.798006,98.352 344.805996,98.6239973 345.574,99.168 C346.342004,99.7120027 346.941998,100.399996 347.374,101.232 C347.806002,102.064004 348.093999,102.959995 348.238,103.92 C348.382001,104.880005 348.454,105.791996 348.454,106.656 C347.429995,106.688 346.374005,106.72 345.286,106.752 C344.197995,106.784 343.126005,106.8 342.07,106.8 C341.045995,106.8 339.998005,106.784 338.926,106.752 C337.853995,106.72 336.822005,106.688 335.83,106.656 C335.894,105.791996 336.061999,104.872005 336.334,103.896 C336.606001,102.919995 337.005997,102.024004 337.534,101.208 C338.062003,100.391996 338.733996,99.7120027 339.55,99.168 C340.366004,98.6239973 341.365994,98.352 342.55,98.352 L342.55,98.352 Z M331.462,109.44 C331.462,111.040008 331.741997,112.527993 332.302,113.904 C332.862003,115.280007 333.661995,116.471995 334.702,117.48 C335.742005,118.488005 336.973993,119.255997 338.398,119.784 C339.822007,120.312003 341.397991,120.576 343.126,120.576 C344.662008,120.576 346.141993,120.304003 347.566,119.76 C348.990007,119.215997 350.181995,118.560004 351.142,117.792 L351.43,115.44 L351.19,115.296 C350.773998,115.776002 350.286003,116.223998 349.726,116.64 C349.165997,117.056002 348.566003,117.415998 347.926,117.72 C347.285997,118.024002 346.630003,118.263999 345.958,118.44 C345.285997,118.616001 344.630003,118.704 343.99,118.704 C342.645993,118.704 341.462005,118.472002 340.438,118.008 C339.413995,117.543998 338.550004,116.920004 337.846,116.136 C337.141996,115.351996 336.606002,114.416005 336.238,113.328 C335.869998,112.239995 335.686,111.072006 335.686,109.824 L335.686,109.2 C335.686,108.879998 335.702,108.640001 335.734,108.48 C336.790005,108.448 337.837995,108.416 338.878,108.384 C339.918005,108.352 340.965995,108.336 342.022,108.336 C343.750009,108.336 345.461992,108.352 347.158,108.384 C348.854008,108.416 350.565991,108.448 352.294,108.48 C352.326,108.159998 352.35,107.848002 352.366,107.544 C352.382,107.239998 352.39,106.928002 352.39,106.608 C352.39,105.263993 352.190002,104.000006 351.79,102.816 C351.389998,101.631994 350.774004,100.600004 349.942,99.72 C349.109996,98.8399956 348.078006,98.1360026 346.846,97.608 C345.613994,97.0799974 344.150008,96.816 342.454,96.816 C338.869982,96.816 336.142009,97.9359888 334.27,100.176 C332.397991,102.416011 331.462,105.50398 331.462,109.44 L331.462,109.44 Z M377.022,120.096 C377.534003,120.032 378.093997,120 378.702,120 C379.310003,120 379.869997,120.032 380.382,120.096 C380.862002,118.687993 381.389997,117.120009 381.966,115.392 C382.542003,113.663991 383.133997,111.904009 383.742,110.112 C384.350003,108.319991 384.957997,106.544009 385.566,104.784 C386.174003,103.023991 386.741997,101.376008 387.27,99.84 C387.798003,98.3039923 388.277998,96.9200062 388.71,95.688 C389.142002,94.4559938 389.485999,93.4720037 389.742,92.736 L389.838,92.736 C391.470008,97.536024 392.989993,102.183978 394.398,106.68 C395.806007,111.176022 397.229993,115.647978 398.67,120.096 C399.182003,120.032 399.725997,120 400.302,120 C400.878003,120 401.421997,120.032 401.934,120.096 C402.222001,119.327996 402.661997,118.072009 403.254,116.328 C403.846003,114.583991 404.517996,112.616011 405.27,110.424 C406.022004,108.231989 406.805996,105.920012 407.622,103.488 C408.438004,101.055988 409.221996,98.7520109 409.974,96.576 C410.726004,94.3999891 411.405997,92.4640085 412.014,90.768 C412.622003,89.0719915 413.085998,87.8560037 413.406,87.12 C413.117999,87.1840003 412.838001,87.2399998 412.566,87.288 C412.293999,87.3360002 412.014001,87.36 411.726,87.36 C411.437999,87.36 411.158001,87.3360002 410.886,87.288 C410.613999,87.2399998 410.334001,87.1840003 410.046,87.12 C409.885999,87.8240035 409.590002,88.9119926 409.158,90.384 C408.725998,91.8560074 408.230003,93.5279906 407.67,95.4 C407.109997,97.2720094 406.518003,99.2399897 405.894,101.304 C405.269997,103.36801 404.662003,105.335991 404.07,107.208 C403.477997,109.080009 402.950002,110.759993 402.486,112.248 C402.021998,113.736007 401.678001,114.831996 401.454,115.536 L401.358,115.536 C401.069999,114.703996 400.678002,113.552007 400.182,112.08 C399.685998,110.607993 399.134003,108.960009 398.526,107.136 C397.917997,105.311991 397.286003,103.40801 396.63,101.424 C395.973997,99.4399901 395.358003,97.5280092 394.782,95.688 C394.205997,93.8479908 393.686002,92.1760075 393.222,90.672 C392.757998,89.1679925 392.414001,87.9840043 392.19,87.12 C391.549997,87.2800008 391.022002,87.36 390.606,87.36 C390.189998,87.36 389.662003,87.2800008 389.022,87.12 C388.829999,87.920004 388.510002,89.0639926 388.062,90.552 C387.613998,92.0400074 387.102003,93.687991 386.526,95.496 C385.949997,97.304009 385.326003,99.1999901 384.654,101.184 C383.981997,103.16801 383.342003,105.079991 382.734,106.92 C382.125997,108.760009 381.566003,110.439992 381.054,111.96 C380.541997,113.480008 380.142001,114.671996 379.854,115.536 L379.758,115.536 C378.797995,112.495985 377.942004,109.768012 377.19,107.352 C376.437996,104.935988 375.734003,102.632011 375.078,100.44 C374.421997,98.247989 373.806003,96.0880106 373.23,93.96 C372.653997,91.8319894 372.062003,89.5520122 371.454,87.12 C371.037998,87.1840003 370.638002,87.2399998 370.254,87.288 C369.869998,87.3360002 369.470002,87.36 369.054,87.36 C368.637998,87.36 368.238002,87.3360002 367.854,87.288 C367.469998,87.2399998 367.070002,87.1840003 366.654,87.12 C366.974002,87.9520042 367.413997,89.2319914 367.974,90.96 C368.534003,92.6880086 369.149997,94.6319892 369.822,96.792 C370.494003,98.9520108 371.197996,101.223988 371.934,103.608 C372.670004,105.992012 373.373997,108.271989 374.046,110.448 C374.718003,112.624011 375.317997,114.575991 375.846,116.304 C376.374003,118.032009 376.765999,119.295996 377.022,120.096 L377.022,120.096 Z M417.73,88.944 C417.73,89.6160034 417.969998,90.1919976 418.45,90.672 C418.930002,91.1520024 419.505997,91.392 420.178,91.392 C420.850003,91.392 421.425998,91.1520024 421.906,90.672 C422.386002,90.1919976 422.626,89.6160034 422.626,88.944 C422.626,88.2719966 422.386002,87.6960024 421.906,87.216 C421.425998,86.7359976 420.850003,86.496 420.178,86.496 C419.505997,86.496 418.930002,86.7359976 418.45,87.216 C417.969998,87.6960024 417.73,88.2719966 417.73,88.944 L417.73,88.944 Z M418.402,106.272 L418.402,111.264 C418.402,112.704007 418.378,114.215992 418.33,115.8 C418.282,117.384008 418.178001,118.815994 418.018,120.096 C418.754004,120.032 419.473997,120 420.178,120 C420.882004,120 421.601996,120.032 422.338,120.096 C422.177999,118.815994 422.074,117.384008 422.026,115.8 C421.978,114.215992 421.954,112.704007 421.954,111.264 L421.954,106.272 C421.954,104.831993 421.978,103.320008 422.026,101.736 C422.074,100.151992 422.177999,98.6720069 422.338,97.296 C421.441996,97.4560008 420.722003,97.536 420.178,97.536 C419.633997,97.536 418.914005,97.4560008 418.018,97.296 C418.178001,98.6720069 418.282,100.151992 418.33,101.736 C418.378,103.320008 418.402,104.831993 418.402,106.272 L418.402,106.272 Z M432.086,97.728 L432.086,106.416 C432.086,107.504005 432.078,108.687994 432.062,109.968 C432.046,111.248006 432.022,112.511994 431.99,113.76 C431.958,115.008006 431.918,116.191994 431.87,117.312 C431.822,118.432006 431.766,119.359996 431.702,120.096 C432.438004,120.032 433.157997,120 433.862,120 C434.566004,120 435.285996,120.032 436.022,120.096 C435.958,119.359996 435.902,118.432006 435.854,117.312 C435.806,116.191994 435.766,115.008006 435.734,113.76 C435.702,112.511994 435.678,111.248006 435.662,109.968 C435.646,108.687994 435.638,107.504005 435.638,106.416 L435.638,97.728 C435.638,96.6399946 435.646,95.4560064 435.662,94.176 C435.678,92.8959936 435.702,91.6320062 435.734,90.384 C435.766,89.1359938 435.806,87.9440057 435.854,86.808 C435.902,85.6719943 435.958,84.704004 436.022,83.904 C435.125996,84.0640008 434.406003,84.144 433.862,84.144 C433.317997,84.144 432.598005,84.0640008 431.702,83.904 C431.766,84.704004 431.822,85.6719943 431.87,86.808 C431.918,87.9440057 431.958,89.1359938 431.99,90.384 C432.022,91.6320062 432.046,92.8959936 432.062,94.176 C432.078,95.4560064 432.086,96.6399946 432.086,97.728 L432.086,97.728 Z M447.114,109.2 C447.114,107.759993 447.249999,106.408006 447.522,105.144 C447.794001,103.879994 448.209997,102.776005 448.77,101.832 C449.330003,100.887995 450.033996,100.152003 450.882,99.624 C451.730004,99.0959974 452.729994,98.832 453.882,98.832 C456.186012,98.832 457.929994,99.6399919 459.114,101.256 C460.298006,102.872008 460.89,105.215985 460.89,108.288 C460.89,109.568006 460.754001,110.847994 460.482,112.128 C460.209999,113.408006 459.778003,114.551995 459.186,115.56 C458.593997,116.568005 457.850005,117.383997 456.954,118.008 C456.057996,118.632003 454.986006,118.944 453.738,118.944 C452.969996,118.944 452.186004,118.800001 451.386,118.512 C450.585996,118.223999 449.874003,117.704004 449.25,116.952 C448.625997,116.199996 448.114002,115.200006 447.714,113.952 C447.313998,112.703994 447.114,111.12001 447.114,109.2 L447.114,109.2 Z M460.842,115.536 L460.698,120.096 C461.338003,120.032 461.945997,120 462.522,120 C463.130003,120 463.753997,120.032 464.394,120.096 C464.362,118.239991 464.33,116.432009 464.298,114.672 C464.266,112.911991 464.25,110.928011 464.25,108.72 C464.25,106.67199 464.266,104.416012 464.298,101.952 C464.33,99.4879877 464.37,97.0880117 464.418,94.752 C464.466,92.4159883 464.522,90.2800097 464.586,88.344 C464.65,86.4079903 464.73,84.9280051 464.826,83.904 C464.409998,83.9680003 464.034002,84.0239998 463.698,84.072 C463.361998,84.1200002 463.018002,84.144 462.666,84.144 C462.313998,84.144 461.962002,84.1200002 461.61,84.072 C461.257998,84.0239998 460.890002,83.9680003 460.506,83.904 C460.538,84.6720038 460.562,85.551995 460.578,86.544 C460.594,87.536005 460.61,88.5919944 460.626,89.712 C460.642,90.8320056 460.658,92.0079938 460.674,93.24 C460.69,94.4720062 460.698,95.6959939 460.698,96.912 L460.698,101.616 L460.602,101.616 C459.225993,98.415984 456.762018,96.816 453.21,96.816 C451.961994,96.816 450.722006,97.0639975 449.49,97.56 C448.257994,98.0560025 447.154005,98.807995 446.178,99.816 C445.201995,100.824005 444.410003,102.079992 443.802,103.584 C443.193997,105.088008 442.89,106.86399 442.89,108.912 C442.89,110.99201 443.169997,112.775993 443.73,114.264 C444.290003,115.752007 445.025995,116.967995 445.938,117.912 C446.850005,118.856005 447.889994,119.535998 449.058,119.952 C450.226006,120.368002 451.417994,120.576 452.634,120.576 C453.818006,120.576 454.857996,120.416002 455.754,120.096 C456.650005,119.775998 457.425997,119.360003 458.082,118.848 C458.738003,118.335997 459.281998,117.784003 459.714,117.192 C460.146002,116.599997 460.489999,116.048003 460.746,115.536 L460.842,115.536 Z M471.838,117.84 C471.838,118.576004 472.109997,119.191998 472.654,119.688 C473.198003,120.184002 473.837996,120.432 474.574,120.432 C475.310004,120.432 475.949997,120.184002 476.494,119.688 C477.038003,119.191998 477.31,118.576004 477.31,117.84 C477.31,117.103996 477.038003,116.464003 476.494,115.92 C475.949997,115.375997 475.310004,115.104 474.574,115.104 C473.837996,115.104 473.198003,115.375997 472.654,115.92 C472.109997,116.464003 471.838,117.103996 471.838,117.84 L471.838,117.84 Z" id="Live-Well.-Love-Wild"></path>
        </g>
    </g>
</svg>