<?xml version="1.0" encoding="UTF-8" standalone="no"?>
<svg width="250px" height="204px" viewBox="0 0 250 204" version="1.1" xmlns="http://www.w3.org/2000/svg" xmlns:xlink="http://www.w3.org/1999/xlink">
    <!-- Generator: Sketch 39.1 (31720) - http://www.bohemiancoding.com/sketch -->
    <title>Artboard</title>
    <desc>Created with Sketch.</desc>
    <defs></defs>
    <g id="Page-1" stroke="none" stroke-width="1" fill="none" fill-rule="evenodd">
        <g id="Artboard" fill="#000000">
            <g id="Twitter_Logo_WhiteOnImage">
                <g id="Logo__x2014__FIXED">
                    <path d="M78.5,203.2 C172.8,203.2 224.4,125 224.4,57.3 C224.4,55.1 224.4,52.9 224.3,50.7 C234.3,43.5 243,34.4 249.9,24.1 C240.7,28.2 230.8,30.9 220.4,32.2 C231,25.9 239.1,15.8 243,3.8 C233.1,9.7 222.1,13.9 210.4,16.2 C201,6.2 187.7,0 173,0 C144.7,0 121.7,23 121.7,51.3 C121.7,55.3 122.2,59.2 123,63 C80.4,60.9 42.6,40.4 17.3,9.4 C12.9,17 10.4,25.8 10.4,35.2 C10.4,53 19.5,68.7 33.2,77.9 C24.8,77.6 16.9,75.3 10,71.5 L10,72.2 C10,97 27.7,117.8 51.1,122.5 C46.8,123.7 42.3,124.3 37.6,124.3 C34.3,124.3 31.1,124 28,123.4 C34.5,143.8 53.5,158.6 75.9,159 C58.3,172.8 36.2,181 12.2,181 C8.1,181 4,180.8 0,180.3 C22.6,194.7 49.6,203.2 78.5,203.2" id="Shape"></path>
                </g>
            </g>
        </g>
    </g>
</svg>